<?xml version="1.0" encoding="utf-8"?>
<!-- Generator: Adobe Illustrator 24.0.1, SVG Export Plug-In . SVG Version: 6.00 Build 0)  -->
<svg version="1.2" baseProfile="tiny" id="Camada_1"
	 xmlns="http://www.w3.org/2000/svg" xmlns:xlink="http://www.w3.org/1999/xlink" x="0px" y="0px" viewBox="0 0 360 220"
	 xml:space="preserve">
<path fill="#000000" d="M180.1,64.9c-13.9,0-26.9,5.4-36.7,15.2c-5.1,5.1-8.9,11-11.6,17.6l-2.8-1.1c2.8-7,6.9-13.2,12.2-18.6
	c10.4-10.4,24.2-16.1,38.9-16.1c14.7,0,28.5,5.7,38.9,16.1c10.4,10.4,16.1,24.2,16.1,38.9h-3c0-13.9-5.4-26.9-15.2-36.7
	C207,70.3,194,64.9,180.1,64.9z M121.8,52.4h-28v3h28V52.4z M267.4,53h-25.4v3h25.4V53z M275.4,83.4c3.4-4,6.7-8,10.1-11.9
	c3.5-3.9,6.9-7.8,10.3-11.7l5.1-5.9l5.2-5.8l10.4-11.7c3.4-3.9,7-7.7,10.5-11.6c3.5-3.9,7-7.7,10.4-11.7c-3.8,3.5-7.7,7.1-11.4,10.7
	l-5.7,5.4c-1.9,1.8-3.8,3.6-5.6,5.5l-11,11.1l-5.5,5.6l-5.4,5.7c-2.4,2.5-4.8,5.1-7.2,7.7c-3.2-4.5-8.4-7.3-14-7.3h-42
	c-3.4-12.9-14.3-20.9-28.7-20.9h-41.9c-14.4,0-25.3,8-28.7,20.9h-42c-5.2,0-10.1,2.4-13.3,6.4C58.6,46.1,41.1,29.1,22.8,13l-0.3,0.4
	c9.3,10.6,18.8,20.7,28.2,31l7,7.7l3.5,3.8l3.5,3.9c4.7,5.1,9.4,10.2,14,15.5c4.7,5.1,9.3,10.3,13.9,15.5
	c4.7,5.1,9.2,10.4,13.9,15.6c9.2,10.4,18.4,20.9,28.1,31.1l0.4-0.3c-16.4-22.6-33.9-44.4-52.6-65.3c-1.7-1.9-3.5-3.8-5.2-5.7
	c2.6-3.5,6.8-5.6,11.2-5.6h44.4l0.3-1.2c2.7-12.2,12.7-19.7,26.1-19.7H201c13.4,0,23.3,7.6,26.1,19.7l0.3,1.2h44.4
	c4.8,0,9.3,2.5,11.9,6.5c-11.1,12-21.7,24.4-32.2,37l-9.8,12.2c-3.3,4.1-6.5,8.2-9.7,12.3l-4.7,6.2c-1.6,2.1-3.1,4.2-4.7,6.3
	c-3.1,4.2-6.2,8.4-9.2,12.7c-3,4.3-6,8.5-8.9,12.9l-4.3,6.5l-4.2,6.6c-5.6,8.8-11,17.8-15.8,27c5.8-8.7,11.7-17.2,17.9-25.7l4.6-6.3
	l4.7-6.3c3.1-4.2,6.2-8.3,9.4-12.5c3.1-4.2,6.4-8.2,9.5-12.4c1.6-2.1,3.2-4.1,4.8-6.2l4.9-6.1c6.4-8.2,13-16.2,19.6-24.3
	C261.9,99.3,268.5,91.2,275.4,83.4z"/>
</svg>
