<?xml version="1.0" encoding="utf-8"?>
<!-- Generator: Adobe Illustrator 24.0.1, SVG Export Plug-In . SVG Version: 6.00 Build 0)  -->
<svg version="1.2" baseProfile="tiny" id="Layer_1" xmlns="http://www.w3.org/2000/svg"
	xmlns:xlink="http://www.w3.org/1999/xlink" x="0px" y="0px" viewBox="0 0 1000 600" xml:space="preserve">
	<path fill="#070708" d="M635,491.6l-15.9-7l7-15.9l15.9,7L635,491.6z M624.3,467.8l-15.9-7l-7,15.9l15.9,7L624.3,467.8z
	 M605.2,460.5l-14.1-6.2l-6.2,14.1l14.1,6.2L605.2,460.5z M587.4,452.6l-14.1-6.2l-6.2,14.1l14.1,6.2L587.4,452.6z M516.4,435.9
	l10.4,4.6l4.6-10.4l-10.4-4.6L516.4,435.9z M498.7,428l10.4,4.6l4.6-10.4l-10.4-4.6L498.7,428z M421,384.5l-5-2.2l-2.2,5l5,2.2
	L421,384.5z M403.2,376.6l-5-2.2l-2.2,5l5,2.2L403.2,376.6z M568.4,445.3l-12.3-5.4l-5.4,12.3l12.3,5.4L568.4,445.3z M538.3,432
	l-5.4,12.3l12.3,5.4l5.4-12.3L538.3,432z M482.2,419.7l8.6,3.8l3.8-8.6l-8.6-3.8L482.2,419.7z M476.9,407l-8.6-3.8l-3.8,8.6l8.6,3.8
	L476.9,407z M448,403.5l6.8,3l3-6.8l-6.8-3L448,403.5z M440.1,391.8l-6.8-3l-3,6.8l6.8,3L440.1,391.8z M365,364.5L365,364.5l1.4-3.1
	l-3.1-1.4l0,0l0,0l-1.4,3.1L365,364.5L365,364.5z M382.7,372.4L382.7,372.4l1.4-3.1l-3.1-1.4l0,0l0,0l-1.4,3.1L382.7,372.4
	L382.7,372.4z M667.7,465.7l-15.9-7l-7,15.9l15.9,7L667.7,465.7z M649.9,457.9l-15.9-7l-7,15.9l15.9,7L649.9,457.9z M953.2,590.9
	l-4,9.1h21.2h3.4h17.9h8.3v-9.7v-9.2l-3.4,7.7l-17.8-7.9l-7.9,17.8L953.2,590.9z M630.8,450.5l-14.1-6.2l-6.2,14.1l14.1,6.2
	L630.8,450.5z M613.1,442.7l-14.1-6.2l-6.2,14.1l14.1,6.2L613.1,442.7z M542.1,426l10.4,4.6l4.6-10.4l-10.4-4.6L542.1,426z
	 M524.3,418.1l10.4,4.6l4.6-10.4l-10.4-4.6L524.3,418.1z M439.4,377.3l5,2.2l2.2-5l-5-2.2L439.4,377.3z M428.8,366.7l-5-2.2l-2.2,5
	l5,2.2L428.8,366.7z M594,435.4l-12.3-5.4l-5.4,12.3l12.3,5.4L594,435.4z M576.2,427.5l-12.3-5.4l-5.4,12.3l12.3,5.4L576.2,427.5z
	 M507.9,409.8l8.6,3.8l3.8-8.6l-8.6-3.8L507.9,409.8z M490.1,401.9l8.6,3.8l3.8-8.6l-8.6-3.8L490.1,401.9z M473.6,393.5l6.8,3l3-6.8
	l-6.8-3L473.6,393.5z M455.9,385.7l6.8,3l3-6.8l-6.8-3L455.9,385.7z M390.6,354.6L390.6,354.6l1.4-3.1l-3.1-1.4l0,0l0,0l-1.4,3.1
	L390.6,354.6L390.6,354.6z M408.4,362.5L408.4,362.5l1.4-3.1l-3.1-1.4l0,0l0,0l-1.4,3.1L408.4,362.5L408.4,362.5z M693.3,455.8
	l-15.9-7l-7,15.9l15.9,7L693.3,455.8z M675.5,448l-15.9-7l-7,15.9l15.9,7L675.5,448z M656.4,440.6l-14.1-6.2l-6.2,14.1l14.1,6.2
	L656.4,440.6z M638.7,432.8l-14.1-6.2l-6.2,14.1l14.1,6.2L638.7,432.8z M567.7,416.1l10.4,4.6l4.6-10.4l-10.4-4.6L567.7,416.1z
	 M549.9,408.2l10.4,4.6l4.6-10.4l-10.4-4.6L549.9,408.2z M465.1,367.4l5,2.2l2.2-5l-5-2.2L465.1,367.4z M447.3,359.6l5,2.2l2.2-5
	l-5-2.2L447.3,359.6z M619.6,425.4l-12.3-5.4l-5.4,12.3l12.3,5.4L619.6,425.4z M601.8,417.6l-12.3-5.4l-5.4,12.3l12.3,5.4
	L601.8,417.6z M533.5,399.9l8.6,3.8l3.8-8.6l-8.6-3.8L533.5,399.9z M515.7,392l8.6,3.8l3.8-8.6l-8.6-3.8L515.7,392z M499.3,383.6
	l6.8,3l3-6.8l-6.8-3L499.3,383.6z M481.5,375.8l6.8,3l3-6.8l-6.8-3L481.5,375.8z M416.2,344.7L416.2,344.7l1.4-3.1l-3.1-1.4l0,0l0,0
	l-1.4,3.1L416.2,344.7L416.2,344.7z M432.2,348.1l-1.4,3.1l3.1,1.4l0,0l0,0l1.4-3.1L432.2,348.1L432.2,348.1L432.2,348.1z
	 M718.9,445.9l-15.9-7l-7,15.9l15.9,7L718.9,445.9z M701.1,438.1l-15.9-7l-7,15.9l15.9,7L701.1,438.1z M682.1,430.7l-14.1-6.2
	l-6.2,14.1l14.1,6.2L682.1,430.7z M664.3,422.9l-14.1-6.2l-6.2,14.1l14.1,6.2L664.3,422.9z M608.4,400.3l-10.4-4.6l-4.6,10.4
	l10.4,4.6L608.4,400.3z M575.5,398.3l10.4,4.6l4.6-10.4l-10.4-4.6L575.5,398.3z M490.7,357.5l5,2.2l2.2-5l-5-2.2L490.7,357.5z
	 M472.9,349.7l5,2.2l2.2-5l-5-2.2L472.9,349.7z M645.2,415.5l-12.3-5.4l-5.4,12.3l12.3,5.4L645.2,415.5z M627.4,407.7l-12.3-5.4
	l-5.4,12.3L622,420L627.4,407.7z M559.1,389.9l8.6,3.8l3.8-8.6l-8.6-3.8L559.1,389.9z M541.3,382.1l8.6,3.8l3.8-8.6l-8.6-3.8
	L541.3,382.1z M524.9,373.7l6.8,3l3-6.8l-6.8-3L524.9,373.7z M507.1,365.9l6.8,3l3-6.8l-6.8-3L507.1,365.9z M744.5,436l-15.9-7
	l-7,15.9l15.9,7L744.5,436z M726.8,428.2l-15.9-7l-7,15.9l15.9,7L726.8,428.2z M707.7,420.8l-14.1-6.2l-6.2,14.1l14.1,6.2
	L707.7,420.8z M689.9,413l-14.1-6.2l-6.2,14.1l14.1,6.2L689.9,413z M634,390.4l-10.4-4.6l-4.6,10.4l10.4,4.6L634,390.4z
	 M601.2,388.4l10.4,4.6l4.6-10.4l-10.4-4.6L601.2,388.4z M516.3,347.6l5,2.2l2.2-5l-5-2.2L516.3,347.6z M498.5,339.7l5,2.2l2.2-5
	l-5-2.2L498.5,339.7z M670.8,405.6l-12.3-5.4l-5.4,12.3l12.3,5.4L670.8,405.6z M653.1,397.8l-12.3-5.4l-5.4,12.3l12.3,5.4
	L653.1,397.8z M597.1,375.2l-8.6-3.8l-3.8,8.6l8.6,3.8L597.1,375.2z M566.9,372.2l8.6,3.8l3.8-8.6l-8.6-3.8L566.9,372.2z
	 M550.5,363.8l6.8,3l3-6.8l-6.8-3L550.5,363.8z M532.7,356l6.8,3l3-6.8l-6.8-3L532.7,356z M770.1,426.1l-15.9-7l-7,15.9l15.9,7
	L770.1,426.1z M752.4,418.3l-15.9-7l-7,15.9l15.9,7L752.4,418.3z M733.3,410.9l-14.1-6.2l-6.2,14.1l14.1,6.2L733.3,410.9z
	 M715.5,403.1l-14.1-6.2l-6.2,14.1l14.1,6.2L715.5,403.1z M659.6,380.5l-10.4-4.6l-4.6,10.4L655,391L659.6,380.5z M626.8,378.5
	l10.4,4.6l4.6-10.4l-10.4-4.6L626.8,378.5z M541.9,337.7l5,2.2l2.2-5l-5-2.2L541.9,337.7z M524.1,329.8l5,2.2l2.2-5l-5-2.2
	L524.1,329.8z M696.4,395.7l-12.3-5.4l-5.4,12.3L691,408L696.4,395.7z M678.7,387.9l-12.3-5.4l-5.4,12.3l12.3,5.4L678.7,387.9z
	 M622.8,365.3l-8.6-3.8l-3.8,8.6l8.6,3.8L622.8,365.3z M592.6,362.3l8.6,3.8l3.8-8.6l-8.6-3.8L592.6,362.3z M576.1,353.9l6.8,3
	l3-6.8l-6.8-3L576.1,353.9z M558.4,346.1l6.8,3l3-6.8l-6.8-3L558.4,346.1z M795.8,416.2l-15.9-7l-7,15.9l15.9,7L795.8,416.2z
	 M778,408.3l-15.9-7l-7,15.9l15.9,7L778,408.3z M758.9,401l-14.1-6.2l-6.2,14.1l14.1,6.2L758.9,401z M741.1,393.1l-14.1-6.2
	l-6.2,14.1l14.1,6.2L741.1,393.1z M685.2,370.6l-10.4-4.6l-4.6,10.4l10.4,4.6L685.2,370.6z M652.4,368.6l10.4,4.6l4.6-10.4
	l-10.4-4.6L652.4,368.6z M567.5,327.8l5,2.2l2.2-5l-5-2.2L567.5,327.8z M549.8,319.9l5,2.2l2.2-5l-5-2.2L549.8,319.9z M722.1,385.8
	l-12.3-5.4l-5.4,12.3l12.3,5.4L722.1,385.8z M704.3,377.9l-12.3-5.4l-5.4,12.3l12.3,5.4L704.3,377.9z M648.4,355.4l-8.6-3.8
	l-3.8,8.6l8.6,3.8L648.4,355.4z M618.2,352.4l8.6,3.8l3.8-8.6l-8.6-3.8L618.2,352.4z M601.7,344l6.8,3l3-6.8l-6.8-3L601.7,344z
	 M590.8,339.1l3-6.8l-6.8-3l-3,6.8L590.8,339.1z M821.4,406.3l-15.9-7l-7,15.9l15.9,7L821.4,406.3z M803.6,398.4l-15.9-7l-7,15.9
	l15.9,7L803.6,398.4z M784.5,391.1l-14.1-6.2l-6.2,14.1l14.1,6.2L784.5,391.1z M766.8,383.2l-14.1-6.2l-6.2,14.1l14.1,6.2
	L766.8,383.2z M710.8,360.7l-10.4-4.6l-4.6,10.4l10.4,4.6L710.8,360.7z M678,358.7l10.4,4.6l4.6-10.4l-10.4-4.6L678,358.7z
	 M593.1,317.9l5,2.2l2.2-5l-5-2.2L593.1,317.9z M575.4,310l5,2.2l2.2-5l-5-2.2L575.4,310z M747.7,375.9l-12.3-5.4l-5.4,12.3
	l12.3,5.4L747.7,375.9z M729.9,368l-12.3-5.4l-5.4,12.3l12.3,5.4L729.9,368z M674,345.5l-8.6-3.8l-3.8,8.6l8.6,3.8L674,345.5z
	 M643.8,342.5l8.6,3.8l3.8-8.6l-8.6-3.8L643.8,342.5z M627.3,334.1l6.8,3l3-6.8l-6.8-3L627.3,334.1z M616.4,329.2l3-6.8l-6.8-3
	l-3,6.8L616.4,329.2z M847,396.4l-15.9-7l-7,15.9l15.9,7L847,396.4z M829.2,388.5l-15.9-7l-7,15.9l15.9,7L829.2,388.5z M810.1,381.2
	l-14.1-6.2l-6.2,14.1l14.1,6.2L810.1,381.2z M792.4,373.3l-14.1-6.2l-6.2,14.1l14.1,6.2L792.4,373.3z M736.4,350.8l-10.4-4.6
	l-4.6,10.4l10.4,4.6L736.4,350.8z M703.6,348.8l10.4,4.6l4.6-10.4l-10.4-4.6L703.6,348.8z M618.8,308l5,2.2l2.2-5l-5-2.2L618.8,308z
	 M601,300.1l5,2.2l2.2-5l-5-2.2L601,300.1z M773.3,366l-12.3-5.4l-5.4,12.3l12.3,5.4L773.3,366z M755.5,358.1l-12.3-5.4l-5.4,12.3
	l12.3,5.4L755.5,358.1z M699.6,335.6l-8.6-3.8l-3.8,8.6l8.6,3.8L699.6,335.6z M669.4,332.5l8.6,3.8l3.8-8.6l-8.6-3.8L669.4,332.5z
	 M653,324.2l6.8,3l3-6.8l-6.8-3L653,324.2z M642,319.3l3-6.8l-6.8-3l-3,6.8L642,319.3z M587.7,293.1L587.7,293.1l1.4-3.1l-3.1-1.4
	l0,0l0,0l-1.4,3.1L587.7,293.1L587.7,293.1z M872.6,386.5l-15.9-7l-7,15.9l15.9,7L872.6,386.5z M854.8,378.6l-15.9-7l-7,15.9l15.9,7
	L854.8,378.6z M835.8,371.3l-14.1-6.2l-6.2,14.1l14.1,6.2L835.8,371.3z M818,363.4l-14.1-6.2l-6.2,14.1l14.1,6.2L818,363.4z
	 M762.1,340.9l-10.4-4.6l-4.6,10.4l10.4,4.6L762.1,340.9z M729.2,338.9l10.4,4.6l4.6-10.4l-10.4-4.6L729.2,338.9z M644.4,298l5,2.2
	l2.2-5l-5-2.2L644.4,298z M626.6,290.2l5,2.2l2.2-5l-5-2.2L626.6,290.2z M798.9,356.1l-12.3-5.4l-5.4,12.3l12.3,5.4L798.9,356.1z
	 M781.1,348.2l-12.3-5.4l-5.4,12.3l12.3,5.4L781.1,348.2z M725.2,325.7l-8.6-3.8l-3.8,8.6l8.6,3.8L725.2,325.7z M695,322.6l8.6,3.8
	l3.8-8.6l-8.6-3.8L695,322.6z M678.6,314.3l6.8,3l3-6.8l-6.8-3L678.6,314.3z M667.6,309.4l3-6.8l-6.8-3l-3,6.8L667.6,309.4z
	 M613.3,283.2L613.3,283.2l1.4-3.1l-3.1-1.4l0,0.1l-0.1,0l-1.4,3.1L613.3,283.2L613.3,283.2z M898.2,376.6l-15.9-7l-7,15.9l15.9,7
	L898.2,376.6z M880.5,368.7l-15.9-7l-7,15.9l15.9,7L880.5,368.7z M861.4,361.4l-14.1-6.2l-6.2,14.1l14.1,6.2L861.4,361.4z
	 M843.6,353.5l-14.1-6.2l-6.2,14.1l14.1,6.2L843.6,353.5z M787.7,331l-10.4-4.6l-4.6,10.4l10.4,4.6L787.7,331z M754.9,328.9
	l10.4,4.6l4.6-10.4l-10.4-4.6L754.9,328.9z M670,288.1l5,2.2l2.2-5l-5-2.2L670,288.1z M652.2,280.3l5,2.2l2.2-5l-5-2.2L652.2,280.3z
	 M824.5,346.2l-12.3-5.4l-5.4,12.3l12.3,5.4L824.5,346.2z M806.8,338.3l-12.3-5.4l-5.4,12.3l12.3,5.4L806.8,338.3z M750.8,315.8
	l-8.6-3.8l-3.8,8.6l8.6,3.8L750.8,315.8z M720.6,312.7l8.6,3.8l3.8-8.6l-8.6-3.8L720.6,312.7z M704.2,304.4l6.8,3l3-6.8l-6.8-3
	L704.2,304.4z M686.4,296.5l6.8,3l3-6.8l-6.8-3L686.4,296.5z M638.9,273.2L638.9,273.2l1.4-3.1l-3.1-1.4l0,0.1l-0.1,0l-1.4,3.1
	L638.9,273.2L638.9,273.2z M923.8,366.6l-15.9-7l-7,15.9l15.9,7L923.8,366.6z M906.1,358.8l-15.9-7l-7,15.9l15.9,7L906.1,358.8z
	 M887,351.5l-14.1-6.2l-6.2,14.1l14.1,6.2L887,351.5z M869.2,343.6l-14.1-6.2l-6.2,14.1l14.1,6.2L869.2,343.6z M813.3,321.1
	l-10.4-4.6l-4.6,10.4l10.4,4.6L813.3,321.1z M780.5,319l10.4,4.6l4.6-10.4l-10.4-4.6L780.5,319z M695.6,278.2l5,2.2l2.2-5l-5-2.2
	L695.6,278.2z M677.8,270.4l5,2.2l2.2-5l-5-2.2L677.8,270.4z M850.1,336.3l-12.3-5.4l-5.4,12.3l12.3,5.4L850.1,336.3z M832.4,328.4
	l-12.3-5.4l-5.4,12.3l12.3,5.4L832.4,328.4z M776.5,305.9l-8.6-3.8l-3.8,8.6l8.6,3.8L776.5,305.9z M746.3,302.8l8.6,3.8l3.8-8.6
	l-8.6-3.8L746.3,302.8z M729.8,294.4l6.8,3l3-6.8l-6.8-3L729.8,294.4z M712.1,286.6l6.8,3l3-6.8l-6.8-3L712.1,286.6z M664.6,263.3
	L664.6,263.3l1.4-3.1l-3.1-1.4l0,0.1l-0.1,0l-1.4,3.1L664.6,263.3L664.6,263.3z M949.5,356.7l-15.9-7l-7,15.9l15.9,7L949.5,356.7z
	 M931.7,348.9l-15.9-7l-7,15.9l15.9,7L931.7,348.9z M912.6,341.5l-14.1-6.2l-6.2,14.1l14.1,6.2L912.6,341.5z M894.8,333.7l-14.1-6.2
	l-6.2,14.1l14.1,6.2L894.8,333.7z M838.9,311.1l-10.4-4.6l-4.6,10.4l10.4,4.6L838.9,311.1z M821.2,303.3l-10.4-4.6l-4.6,10.4
	l10.4,4.6L821.2,303.3z M721.2,268.3l5,2.2l2.2-5l-5-2.2L721.2,268.3z M703.5,260.5l5,2.2l2.2-5l-5-2.2L703.5,260.5z M875.8,326.3
	l-12.3-5.4l-5.4,12.3l12.3,5.4L875.8,326.3z M858,318.5l-12.3-5.4l-5.4,12.3l12.3,5.4L858,318.5z M802.1,295.9l-8.6-3.8l-3.8,8.6
	l8.6,3.8L802.1,295.9z M771.9,292.9l8.6,3.8l3.8-8.6l-8.6-3.8L771.9,292.9z M755.4,284.5l6.8,3l3-6.8l-6.8-3L755.4,284.5z
	 M737.7,276.7l6.8,3l3-6.8l-6.8-3L737.7,276.7z M975.1,346.8l-15.9-7l-7,15.9l15.9,7L975.1,346.8z M957.3,339l-15.9-7l-7,15.9
	l15.9,7L957.3,339z M994.2,354.2l5.8-13.2v15.8v9.7v0.6V378v11v10.2v21.2V437l-1.7,3.9l-17.8-7.9l17.8,7.9l1.7-3.9v4.7v21.2v21.2
	v0.9l-7.5,17l-17.8-7.9l-7.9,17.8l-17.8-7.9l-7.9,17.8l0,0l7.9-17.8l17.8,7.9l7.9-17.8l17.8,7.9l7.5-17v20.4v21.2v6.5v14.8v9.7v1.5
	v10v12l-3.4,7.7l-17.8-7.9l-7.9,17.8l-17.8-7.9l-4,9.1H928h-2.2h-19.1h-21.2h-7.7h0h-13.5l2.2-5l-2.2,5h-9.8h-1.6H843h-13.3
	l-6.6-2.9l7.9-17.8l-7.9,17.8l-17.8-7.9l-12.2-5.4l12.2,5.4l17.8,7.9l6.6,2.9h-7.9h-11.7h-0.8h-8.8h-18.9h-2.4l0.4-0.9l-17.8-7.9
	l7.9-17.8l-17.8-7.9l7.9-17.8l-7.9,17.8l-17.8-7.9l0,0l-7.9,17.8l17.8,7.9l-7.3,16.6h-3.2h-18.1l3-6.7l-17.8-7.9l7.9-17.8h0
	l-7.9,17.8l17.8,7.9l-3,6.7h-8.7h-1.4h-11.2h-8.7h-12.5h-8.7h-3.7h-8.8l5.5-12.5l-17.8-7.9l7.9-17.8l-17.8-7.9l7.9-17.8l-17.8-7.9
	l7.9-17.8l17.8,7.9l17.8,7.9l17.8,7.9l7.9-17.8l17.8,7.9l7.9-17.8l17.8,7.9l7.9-17.8l17.8,7.9l7.9-17.8l17.8,7.9l7.9-17.8l17.8,7.9
	l7.9-17.8l17.8,7.9l7.9-17.8l17.8,7.9l7.9-17.8l17.8,7.9l7.9-17.8l-7.9,17.8l-17.8-7.9l-7.9,17.8l-17.8-7.9l-7.9,17.8l-17.8-7.9
	l-7.9,17.8l-17.8-7.9l-7.9,17.8l-17.8-7.9l-7.9,17.8l-17.8-7.9l-7.9,17.8l-17.8-7.9l-7.9,17.8l-17.8-7.9l-7.9,17.8l-17.8-7.9
	l-17.8-7.9l-17.8-7.9l-17.8-7.9l7.9-17.8l17.8,7.9l7.9-17.8l17.8,7.9l7.8-17.8l17.8,7.9l7.9-17.8l17.8,7.9l7.9-17.8l17.8,7.9
	l7.9-17.8l17.8,7.9l7.9-17.8l17.8,7.9l7.9-17.8l17.8,7.9l7.9-17.8l17.8,7.9l7.9-17.8l17.8,7.9l7.9-17.8l17.8,7.9l7.9-17.8l17.8,7.9
	l7.9-17.8l17.8,7.9l7.9-17.8l17.8,7.9l7.9-17.8L994.2,354.2z M698.7,542.1l-8.3-3.7L698.7,542.1l-7.9,17.8L698.7,542.1z
	 M724.3,532.2l-7.9,17.8l0,0L724.3,532.2z M750,522.3l-7.9,17.8h0L750,522.3z M819,510.3L819,510.3l7.9-17.8l17.8,7.9l7.9-17.8
	l-7.9,17.8l-17.8-7.9L819,510.3z M811.1,528.1l17.8,7.9l7.9-17.8l-7.9,17.8L811.1,528.1z M793.3,520.2L793.3,520.2l7.9-17.8
	L793.3,520.2z M775.6,512.4l-7.9,17.8l0,0L775.6,512.4z M785.5,538l-7.9,17.8l0,0L785.5,538z M846.6,543.8l-7.9,17.8l-17.8-7.9
	l-7.9,17.8l-17.8-7.9l-7.9,17.8l0,0l7.9-17.8l17.8,7.9l7.9-17.8l17.8,7.9L846.6,543.8z M856.5,569.4l-7.9,17.8l0,0L856.5,569.4z
	 M862.3,508.2l-7.9,17.8l0,0L862.3,508.2z M962.7,425.2L962.7,425.2l7.9-17.8L962.7,425.2z M911.5,445L911.5,445l7.9-17.8l17.8,7.9
	l7.9-17.8l-7.9,17.8l-17.8-7.9L911.5,445z M880.1,516.1L880.1,516.1l7.9-17.8L880.1,516.1z M870.2,490.5L870.2,490.5l7.9-17.8
	L870.2,490.5z M882.2,559.5l-7.9,17.8l0,0L882.2,559.5z M917.7,575.2l-7.9,17.8l-17.8-7.9l17.8,7.9L917.7,575.2z M899.9,567.3
	l7.9-17.8L899.9,567.3L899.9,567.3z M923.5,514l-7.9,17.8l-17.8-7.9l-7.9,17.8l-17.8-7.9l-7.9,17.8l0,0l7.9-17.8l17.8,7.9l7.9-17.8
	l17.8,7.9L923.5,514z M931.3,496.3l7.9-17.8L931.3,496.3l-17.8-7.9L931.3,496.3z M943.3,565.3l-7.9,17.8l0,0L943.3,565.3z
	 M986.7,563.2l-17.8-7.9l-7.9,17.8l0,0l7.9-17.8L986.7,563.2l7.9-17.8L986.7,563.2z M933.4,539.7l-7.9,17.8l0,0L933.4,539.7
	l17.8,7.9l7.9-17.8l17.8,7.9l7.9-17.8l-7.9,17.8l-17.8-7.9l-7.9,17.8L933.4,539.7z M954.9,443l-7.9,17.8l-17.8-7.9l-7.9,17.8
	l-17.8-7.9l17.8,7.9l7.9-17.8l17.8,7.9L954.9,443z M964.8,468.6l-7.9,17.8l0,0L964.8,468.6l17.8,7.9l7.9-17.8l-7.9,17.8L964.8,468.6
	z M996.2,397.6l-7.9,17.8l0,0L996.2,397.6z M938.2,331.6l-14.1-6.2l-6.2,14.1l14.1,6.2L938.2,331.6z M920.5,323.8l-14.1-6.2
	l-6.2,14.1l14.1,6.2L920.5,323.8z M864.5,301.2l-10.4-4.6l-4.6,10.4l10.4,4.6L864.5,301.2z M846.8,293.4l-10.4-4.6l-4.6,10.4
	l10.4,4.6L846.8,293.4z M746.8,258.4l5,2.2l2.2-5l-5-2.2L746.8,258.4z M729.1,250.6l5,2.2l2.2-5l-5-2.2L729.1,250.6z M883.7,323.3
	l12.3,5.4l5.4-12.3l-12.3-5.4L883.7,323.3z M883.6,308.6l-12.3-5.4l-5.4,12.3l12.3,5.4L883.6,308.6z M815.3,290.8l8.6,3.8l3.8-8.6
	l-8.6-3.8L815.3,290.8z M797.5,283l8.6,3.8l3.8-8.6l-8.6-3.8L797.5,283z M781,274.6l6.8,3l3-6.8l-6.8-3L781,274.6z M763.3,266.8
	l6.8,3l3-6.8l-6.8-3L763.3,266.8z M977.7,345.8l15.9,7l6.4-14.4v-1.9l-15.2-6.7L977.7,345.8z M982.9,329.1l-15.9-7l-7,15.9l15.9,7
	L982.9,329.1z M963.8,321.7l-14.1-6.2l-6.2,14.1l14.1,6.2L963.8,321.7z M946.1,313.9l-14.1-6.2l-6.2,14.1l14.1,6.2L946.1,313.9z
	 M875.1,297.2l10.4,4.6l4.6-10.4l-10.4-4.6L875.1,297.2z M857.3,289.3l10.4,4.6l4.6-10.4l-10.4-4.6L857.3,289.3z M772.5,248.5l5,2.2
	l2.2-5l-5-2.2L772.5,248.5z M754.7,240.6l5,2.2l2.2-5l-5-2.2L754.7,240.6z M909.3,313.4l12.3,5.4l5.4-12.3l-12.3-5.4L909.3,313.4z
	 M909.2,298.7l-12.3-5.4l-5.4,12.3l12.3,5.4L909.2,298.7z M840.9,280.9l8.6,3.8l3.8-8.6l-8.6-3.8L840.9,280.9z M823.1,273.1l8.6,3.8
	l3.8-8.6l-8.6-3.8L823.1,273.1z M806.7,264.7l6.8,3l3-6.8l-6.8-3L806.7,264.7z M788.9,256.9l6.8,3l3-6.8l-6.8-3L788.9,256.9z
	 M985.6,328l14.4,6.4v-19l-7.4-3.3L985.6,328z M989.5,311.8l-14.1-6.2l-6.2,14.1l14.1,6.2L989.5,311.8z M971.7,304l-14.1-6.2
	l-6.2,14.1l14.1,6.2L971.7,304z M900.7,287.2l10.4,4.6l4.6-10.4l-10.4-4.6L900.7,287.2z M882.9,279.4l10.4,4.6l4.6-10.4l-10.4-4.6
	L882.9,279.4z M798.1,238.6l5,2.2l2.2-5l-5-2.2L798.1,238.6z M780.3,230.7l5,2.2l2.2-5l-5-2.2L780.3,230.7z M934.9,303.5l12.3,5.4
	l5.4-12.3l-12.3-5.4L934.9,303.5z M934.8,288.8l-12.3-5.4l-5.4,12.3l12.3,5.4L934.8,288.8z M866.5,271l8.6,3.8l3.8-8.6l-8.6-3.8
	L866.5,271z M848.7,263.2l8.6,3.8l3.8-8.6l-8.6-3.8L848.7,263.2z M832.3,254.8l6.8,3l3-6.8l-6.8-3L832.3,254.8z M814.5,247l6.8,3
	l3-6.8l-6.8-3L814.5,247z M1000,312.1v-14.2l-5.3,11.9L1000,312.1z M997.3,294l-14.1-6.2l-6.2,14.1l14.1,6.2L997.3,294z
	 M926.3,277.3l10.4,4.6l4.6-10.4l-10.4-4.6L926.3,277.3z M908.6,269.5l10.4,4.6l4.6-10.4l-10.4-4.6L908.6,269.5z M823.7,228.7l5,2.2
	l2.2-5l-5-2.2L823.7,228.7z M805.9,220.8l5,2.2l2.2-5l-5-2.2L805.9,220.8z M978.2,286.7l-12.3-5.4l-5.4,12.3l12.3,5.4L978.2,286.7z
	 M960.5,278.9l-12.3-5.4l-5.4,12.3l12.3,5.4L960.5,278.9z M892.1,261.1l8.6,3.8l3.8-8.6l-8.6-3.8L892.1,261.1z M874.3,253.3l8.6,3.8
	l3.8-8.6l-8.6-3.8L874.3,253.3z M857.9,244.9l6.8,3l3-6.8l-6.8-3L857.9,244.9z M840.1,237l6.8,3l3-6.8l-6.8-3L840.1,237z
	 M951.9,267.4l10.4,4.6l4.6-10.4l-10.4-4.6L951.9,267.4z M934.2,259.6l10.4,4.6l4.6-10.4l-10.4-4.6L934.2,259.6z M849.3,218.8l5,2.2
	l2.2-5l-5-2.2L849.3,218.8z M831.5,210.9l5,2.2l2.2-5l-5-2.2L831.5,210.9z M986.1,283.6l12.3,5.4l1.6-3.6v-10.4l-8.4-3.7
	L986.1,283.6z M968.4,275.8l12.3,5.4l5.4-12.3l-12.3-5.4L968.4,275.8z M917.7,251.2l8.6,3.8l3.8-8.6l-8.6-3.8L917.7,251.2z
	 M900,243.4l8.6,3.8l3.8-8.6l-8.6-3.8L900,243.4z M883.5,235l6.8,3l3-6.8l-6.8-3L883.5,235z M865.8,227.1l6.8,3l3-6.8l-6.8-3
	L865.8,227.1z M992.6,251.7l-10.4-4.6l-4.6,10.4l10.4,4.6L992.6,251.7z M974.9,243.8l-10.4-4.6l-4.6,10.4l10.4,4.6L974.9,243.8z
	 M874.9,208.9l5,2.2l2.2-5l-5-2.2L874.9,208.9z M857.2,201l5,2.2l2.2-5l-5-2.2L857.2,201z M994,265.9l6,2.7v-14.7l-0.6-0.3
	L994,265.9z M955.8,236.5l-8.6-3.8l-3.8,8.6l8.6,3.8L955.8,236.5z M925.6,233.4l8.6,3.8l3.8-8.6l-8.6-3.8L925.6,233.4z M909.1,225.1
	l6.8,3l3-6.8l-6.8-3L909.1,225.1z M891.4,217.2l6.8,3l3-6.8l-6.8-3L891.4,217.2z M985.4,239.8l10.4,4.6l4.2-9.4v-1.3l-10-4.4
	L985.4,239.8z M900.5,199l5,2.2l2.2-5l-5-2.2L900.5,199z M882.8,191.1l5,2.2l2.2-5l-5-2.2L882.8,191.1z M981.4,226.6l-8.6-3.8
	l-3.8,8.6l8.6,3.8L981.4,226.6z M951.2,223.5l8.6,3.8l3.8-8.6l-8.6-3.8L951.2,223.5z M934.7,215.2l6.8,3l3-6.8l-6.8-3L934.7,215.2z
	 M917,207.3l6.8,3l3-6.8l-6.8-3L917,207.3z M926.2,189l5,2.2l2.2-5l-5-2.2L926.2,189z M908.4,181.2l5,2.2l2.2-5l-5-2.2L908.4,181.2z
	 M994.6,221.5l5.4,2.4v-10.3l-1.6-0.7L994.6,221.5z M989.2,208.8l-8.6-3.8l-3.8,8.6l8.6,3.8L989.2,208.8z M960.4,205.3l6.8,3l3-6.8
	l-6.8-3L960.4,205.3z M942.6,197.4l6.8,3l3-6.8l-6.8-3L942.6,197.4z M951.8,179.1l5,2.2l2.2-5l-5-2.2L951.8,179.1z M934,171.3l5,2.2
	l2.2-5l-5-2.2L934,171.3z M995.8,191.6l-6.8-3l-3,6.8l6.8,3L995.8,191.6z M975,190.5l3-6.8l-6.8-3l-3,6.8L975,190.5z M977.4,169.2
	l5,2.2l2.2-5l-5-2.2L977.4,169.2z M959.6,161.4l5,2.2l2.2-5l-5-2.2L959.6,161.4z M993.8,177.6l6.2,2.7v-2.9v-3.2v-2l-3.2-1.4
	L993.8,177.6z M985.2,151.5l5,2.2l2.2-5l-5-2.2L985.2,151.5z M972,144.3l0.1,0.1l1.4-3.1l-3.1-1.4l-0.1,0.1l-0.1-0.1l-1.4,3.1
	l3.1,1.4L972,144.3z M995.8,130.1l-1.4,3.1l3.1,1.4l0.1-0.1l0.1,0.1l1.4-3.1L996,130l-0.1,0.1L995.8,130.1z M600.5,478.5l-7,15.9
	l15.9,7l7-15.9L600.5,478.5z M582.7,470.7l-7,15.9l15.9,7l7-15.9L582.7,470.7z M565.5,464.1l-6.2,14.1l14.1,6.2l6.2-14.1
	L565.5,464.1z M555.6,476.6l6.2-14.1l-14.1-6.2l-6.2,14.1L555.6,476.6z M505.9,440l-10.4-4.6l-4.6,10.4l10.4,4.6L505.9,440z
	 M488.1,432.1l-10.4-4.6l-4.6,10.4l10.4,4.6L488.1,432.1z M395.4,394.4l-5-2.2l-2.2,5l5,2.2L395.4,394.4z M377.6,386.5l-5-2.2
	l-2.2,5l5,2.2L377.6,386.5z M542.7,455.2l-12.3-5.4L525,462l12.3,5.4L542.7,455.2z M525,447.3l-12.3-5.4l-5.4,12.3l12.3,5.4
	L525,447.3z M469,424.8l-8.6-3.8l-3.8,8.6l8.6,3.8L469,424.8z M451.3,416.9l-8.6-3.8l-3.8,8.6l8.6,3.8L451.3,416.9z M432.2,409.6
	l-6.8-3l-3,6.8l6.8,3L432.2,409.6z M414.4,401.7l-6.8-3l-3,6.8l6.8,3L414.4,401.7z M339.4,374.5L339.4,374.5l1.4-3.1l-2-0.9
	l-1.1-0.5l-1.4,3.1l1.1,0.5L339.4,374.5z M357.1,382.3L357.1,382.3l1.4-3.1l-3.1-1.4l0,0l0,0l-1.4,3.1L357.1,382.3L357.1,382.3z
	 M620.3,529.8l-7,15.9l15.9,7l7-15.9L620.3,529.8z M618.5,528.9l-15.9-7l-7,15.9l15.9,7L618.5,528.9z M593.2,535.7l6.2-14.1
	l-14.1-6.2l-6.2,14.1L593.2,535.7z M581.6,513.7l-14.1-6.2l-6.2,14.1l14.1,6.2L581.6,513.7z M525.7,491.2l-10.4-4.6l-4.6,10.4
	l10.4,4.6L525.7,491.2z M508,483.4l-10.4-4.6l-4.6,10.4l10.4,4.6L508,483.4z M415.2,445.6l-5-2.2l-2.2,5l5,2.2L415.2,445.6z
	 M397.4,437.8l-5-2.2l-2.2,5l5,2.2L397.4,437.8z M562.6,506.4l-12.3-5.4l-5.4,12.3l12.3,5.4L562.6,506.4z M544.8,498.5l-12.3-5.4
	l-5.4,12.3l12.3,5.4L544.8,498.5z M488.9,476l-8.6-3.8l-3.8,8.6l8.6,3.8L488.9,476z M471.1,468.2l-8.6-3.8l-3.8,8.6l8.6,3.8
	L471.1,468.2z M452,460.8l-6.8-3l-3,6.8l6.8,3L452,460.8z M434.3,453l-6.8-3l-3,6.8l6.8,3L434.3,453z M646.2,562.4l-15.9-7l-7,15.9
	l15.9,7L646.2,562.4z M628.4,554.6l-15.9-7l-7,15.9l15.9,7L628.4,554.6z M609.3,547.2l-14.1-6.2l-6.2,14.1l14.1,6.2L609.3,547.2z
	 M585.3,553.5l6.2-14.1l-14.1-6.2l-6.2,14.1L585.3,553.5z M535.6,516.8l-10.4-4.6l-4.6,10.4l10.4,4.6L535.6,516.8z M517.9,509
	l-10.4-4.6l-4.6,10.4l10.4,4.6L517.9,509z M425.1,471.2l-5-2.2l-2.2,5l5,2.2L425.1,471.2z M407.3,463.4l-5-2.2l-2.2,5l5,2.2
	L407.3,463.4z M572.5,532l-12.3-5.4l-5.4,12.3l12.3,5.4L572.5,532z M554.7,524.2l-12.3-5.4L537,531l12.3,5.4L554.7,524.2z
	 M498.8,501.6l-8.6-3.8l-3.8,8.6l8.6,3.8L498.8,501.6z M481,493.8l-8.6-3.8l-3.8,8.6l8.6,3.8L481,493.8z M461.9,486.4l-6.8-3l-3,6.8
	l6.8,3L461.9,486.4z M444.2,478.6l-6.8-3l-3,6.8l6.8,3L444.2,478.6z M386.6,455.3l-1.5-0.7l0,0h0l-1.4,3.1l0,0l0,0l3.1,1.4l1.4-3.1
	l0,0l0,0L386.6,455.3z M640.1,581l-7,15.9l7,3.1h10.7l5.3-12L640.1,581z M622.4,573.1l-7,15.9l15.9,7l7-15.9L622.4,573.1z
	 M619.2,572.8l-14.1-6.2l-6.2,14.1l14.1,6.2L619.2,572.8z M601.5,565l-14.1-6.2l-6.2,14.1l14.1,6.2L601.5,565z M545.5,542.4
	l-10.4-4.6l-4.6,10.4l10.4,4.6L545.5,542.4z M527.8,534.6l-10.4-4.6l-4.6,10.4l10.4,4.6L527.8,534.6z M435,496.8l-5-2.2l-2.2,5
	l5,2.2L435,496.8z M417.2,489l-5-2.2l-2.2,5l5,2.2L417.2,489z M582.4,557.6l-12.3-5.4l-5.4,12.3l12.3,5.4L582.4,557.6z M564.6,549.8
	l-12.3-5.4l-5.4,12.3l12.3,5.4L564.6,549.8z M508.7,527.2l-8.6-3.8l-3.8,8.6l8.6,3.8L508.7,527.2z M490.9,519.4l-8.6-3.8l-3.8,8.6
	l8.6,3.8L490.9,519.4z M471.8,512l-6.8-3l-3,6.8l6.8,3L471.8,512z M454.1,504.2l-6.8-3l-3,6.8l6.8,3L454.1,504.2z M631.7,600h3.4
	l-2.8-1.3L631.7,600z M611.6,600h16.9l0.7-1.5l-14.1-6.2L611.6,600z M591,598.5l3.5,1.5h12.7l4.2-9.4l-14.1-6.2L591,598.5z
	 M555.4,568.1l-10.4-4.6l-4.6,10.4l10.4,4.6L555.4,568.1z M537.7,560.2l-10.4-4.6l-4.6,10.4l10.4,4.6L537.7,560.2z M444.9,522.5
	l-5-2.2l-2.2,5l5,2.2L444.9,522.5z M427.1,514.6l-5-2.2l-2.2,5l5,2.2L427.1,514.6z M580,577.8l-5.4,12.3l12.3,5.4l5.4-12.3
	L580,577.8z M562.3,570l-5.4,12.3l12.3,5.4l5.4-12.3L562.3,570z M518.6,552.9L510,549l-3.8,8.6l8.6,3.8L518.6,552.9z M500.8,545
	l-8.6-3.8l-3.8,8.6l8.6,3.8L500.8,545z M481.8,537.7l-6.8-3l-3,6.8l6.8,3L481.8,537.7z M464,529.8l-6.8-3l-3,6.8l6.8,3L464,529.8z
	 M550.3,599.5l1.1,0.5h11.1l2.8-6.3l-10.4-4.6L550.3,599.5z M532.5,591.6l10.4,4.6l4.6-10.4l-10.4-4.6L532.5,591.6z M454.8,548.1
	l-5-2.2l-2.2,5l5,2.2L454.8,548.1z M437.1,540.2l-5-2.2l-2.2,5l5,2.2L437.1,540.2z M570.2,600h11.9l-10-4.4L570.2,600z M516.1,583.3
	l8.6,3.8l3.8-8.6l-8.6-3.8L516.1,583.3z M502.1,566.8l-3.8,8.6l8.6,3.8l3.8-8.6L502.1,566.8z M481.9,567.1l6.8,3l3-6.8l-6.8-3
	L481.9,567.1z M473.9,555.4l-6.8-3l-3,6.8l6.8,3L473.9,555.4z M457.6,576.5l5,2.2l2.2-5l-5-2.2L457.6,576.5z M439.8,568.6l5,2.2
	l2.2-5l-5-2.2L439.8,568.6z M508.7,600h4.6h2.4h3.3l1.7-3.8l-8.6-3.8L508.7,600z M491.8,592.7l6.8,3l3-6.8l-6.8-3L491.8,592.7z
	 M474,584.8l6.8,3l3-6.8l-6.8-3L474,584.8z M424.7,557.1l-1.4,3.1l0,0l0,0l3.1,1.4l1.4-3.1l0,0l0,0L424.7,557.1z M468.4,600h1.1h3.7
	h1.1l0.3-0.7l-5-2.2L468.4,600z M449.7,594.2l5,2.2l2.2-5l-5-2.2L449.7,594.2z M416.6,575.5l-1.1,2.5l3.1,1.4l0,0h0l1.4-3.1
	l-3.1-1.4L416.6,575.5z M434.7,582.7l-1.4,3.1l0,0l0,0l3.1,1.4l1.4-3.1l0,0l0,0L434.7,582.7z M610.4,504.1l-7,15.9l15.9,7l7-15.9
	L610.4,504.1z M592.6,496.3l-7,15.9l15.9,7l7-15.9L592.6,496.3z M752,565.6l-17.8-7.9l-7.9,17.8l17.8,7.9l-7.3,16.6h21.2h21.2
	l0.4-0.9l-17.8-7.9l7.9-17.8L752,565.6z M575.4,489.7l-6.2,14.1l14.1,6.2l6.2-14.1L575.4,489.7z M571.7,488.1l-14.1-6.2l-6.2,14.1
	l14.1,6.2L571.7,488.1z M515.8,465.6l-10.4-4.6l-4.6,10.4l10.4,4.6L515.8,465.6z M498,457.7l-10.4-4.6l-4.6,10.4l10.4,4.6L498,457.7
	z M405.3,420l-5-2.2l-2.2,5l5,2.2L405.3,420z M387.5,412.1l-5-2.2l-2.2,5l5,2.2L387.5,412.1z M552.7,480.8l-12.3-5.4l-5.4,12.3
	l12.3,5.4L552.7,480.8z M534.9,472.9l-12.3-5.4l-5.4,12.3l12.3,5.4L534.9,472.9z M479,450.4l-8.6-3.8l-3.8,8.6l8.6,3.8L479,450.4z
	 M461.2,442.5l-8.6-3.8l-3.8,8.6l8.6,3.8L461.2,442.5z M442.1,435.2l-6.8-3l-3,6.8l6.8,3L442.1,435.2z M424.3,427.3l-6.8-3l-3,6.8
	l6.8,3L424.3,427.3z M34.9,268.8l15.9,7l7-15.9l-15.9-7L34.9,268.8z M52.7,276.6l15.9,7l7-15.9l-15.9-7L52.7,276.6z M71.8,283.9
	l14.1,6.2l6.2-14.1L78,269.8L71.8,283.9z M109.9,283.9l-14.1-6.2l-6.2,14.1l14.1,6.2L109.9,283.9z M160.5,308.5l-10.4-4.6l-4.6,10.4
	l10.4,4.6L160.5,308.5z M178.3,316.4l-10.4-4.6l-4.6,10.4l10.4,4.6L178.3,316.4z M263.2,357.2l-5-2.2l-2.2,5l5,2.2L263.2,357.2z
	 M280.9,365l-5-2.2l-2.2,5l5,2.2L280.9,365z M126.3,292.3l-12.3-5.4l-5.4,12.3l12.3,5.4L126.3,292.3z M144.1,300.2l-12.3-5.4
	l-5.4,12.3l12.3,5.4L144.1,300.2z M194.7,324.7l-8.6-3.8l-3.8,8.6l8.6,3.8L194.7,324.7z M212.5,332.6l-8.6-3.8l-3.8,8.6l8.6,3.8
	L212.5,332.6z M229,341l-6.8-3l-3,6.8l6.8,3L229,341z M246.7,348.8l-6.8-3l-3,6.8l6.8,3L246.7,348.8z M9.3,278.7l15.9,7l7-15.9
	l-15.9-7L9.3,278.7z M27.1,286.5l15.9,7l7-15.9l-15.9-7L27.1,286.5z M15.8,261.4l17.8,7.9l7.9-17.8l17.8,7.9l7.9-17.8l-17.8-7.9
	l-17.8-7.9L13.8,218L0,211.9v21.2v16v5.2v21.2l8,3.5L15.8,261.4z M46.2,293.9l14.1,6.2l6.2-14.1l-14.1-6.2L46.2,293.9z M63.9,301.7
	l14.1,6.2l6.2-14.1l-14.1-6.2L63.9,301.7z M134.9,318.4l-10.4-4.6l-4.6,10.4l10.4,4.6L134.9,318.4z M152.7,326.3l-10.4-4.6
	l-4.6,10.4l10.4,4.6L152.7,326.3z M237.5,367.1l-5-2.2l-2.2,5l5,2.2L237.5,367.1z M255.3,374.9l-5-2.2l-2.2,5l5,2.2L255.3,374.9z
	 M100.7,302.2l-12.3-5.4L83,309.1l12.3,5.4L100.7,302.2z M118.5,310.1l-12.3-5.4l-5.4,12.3l12.3,5.4L118.5,310.1z M169.1,334.6
	l-8.6-3.8l-3.8,8.6l8.6,3.8L169.1,334.6z M186.9,342.5l-8.6-3.8l-3.8,8.6l8.6,3.8L186.9,342.5z M203.3,350.9l-6.8-3l-3,6.8l6.8,3
	L203.3,350.9z M221.1,358.7l-6.8-3l-3,6.8l6.8,3L221.1,358.7z M0,276.7v18l6.7-15.1L0,276.7z M1.5,296.4l15.9,7l7-15.9l-15.9-7
	L1.5,296.4z M20.5,303.8l14.1,6.2l6.2-14.1l-14.1-6.2L20.5,303.8z M38.3,311.6l14.1,6.2l6.2-14.1l-14.1-6.2L38.3,311.6z
	 M109.3,328.3l-10.4-4.6l-4.6,10.4l10.4,4.6L109.3,328.3z M127.1,336.2l-10.4-4.6L112,342l10.4,4.6L127.1,336.2z M211.9,377l-5-2.2
	l-2.2,5l5,2.2L211.9,377z M229.7,384.8l-5-2.2l-2.2,5l5,2.2L229.7,384.8z M75.1,312.1l-12.3-5.4L57.4,319l12.3,5.4L75.1,312.1z
	 M75.2,326.8l12.3,5.4l5.4-12.3l-12.3-5.4L75.2,326.8z M143.5,344.6l-8.6-3.8l-3.8,8.6l8.6,3.8L143.5,344.6z M161.3,352.4l-8.6-3.8
	l-3.8,8.6l8.6,3.8L161.3,352.4z M177.7,360.8l-6.8-3l-3,6.8l6.8,3L177.7,360.8z M195.5,368.6l-6.8-3l-3,6.8l6.8,3L195.5,368.6z
	 M15.3,305.8l-14.1-6.2L0,302.2v13.7l9,4L15.3,305.8z M26.8,327.8l6.2-14.1l-14.1-6.2l-6.2,14.1L26.8,327.8z M83.7,338.2l-10.4-4.6
	l-4.6,10.4l10.4,4.6L83.7,338.2z M101.4,346.1L91,341.5l-4.6,10.4l10.4,4.6L101.4,346.1z M186.3,386.9l-5-2.2l-2.2,5l5,2.2
	L186.3,386.9z M204.1,394.8l-5-2.2l-2.2,5l5,2.2L204.1,394.8z M44,334.3l5.4-12.3l-12.3-5.4l-5.4,12.3L44,334.3z M49.5,336.7
	l12.3,5.4l5.4-12.3L55,324.5L49.5,336.7z M117.9,354.5l-8.6-3.8l-3.8,8.6l8.6,3.8L117.9,354.5z M135.7,362.3l-8.6-3.8l-3.8,8.6
	l8.6,3.8L135.7,362.3z M152.1,370.7l-6.8-3l-3,6.8l6.8,3L152.1,370.7z M169.9,378.5l-6.8-3l-3,6.8l6.8,3L169.9,378.5z M7.4,323.6
	L0,320.3v16.9l1.2,0.5L7.4,323.6z M58.1,348.2l-10.4-4.6L43,354l10.4,4.6L58.1,348.2z M75.8,356l-10.4-4.6l-4.6,10.4l10.4,4.6
	L75.8,356z M160.7,396.8l-5-2.2l-2.2,5l5,2.2L160.7,396.8z M178.5,404.7l-5-2.2l-2.2,5l5,2.2L178.5,404.7z M6.2,338.8l12.3,5.4
	l5.4-12.3l-12.3-5.4L6.2,338.8z M23.9,346.6l12.3,5.4l5.4-12.3l-12.3-5.4L23.9,346.6z M92.3,364.4l-8.6-3.8l-3.8,8.6l8.6,3.8
	L92.3,364.4z M110,372.2l-8.6-3.8l-3.8,8.6l8.6,3.8L110,372.2z M126.5,380.6l-6.8-3l-3,6.8l6.8,3L126.5,380.6z M144.2,388.4l-6.8-3
	l-3,6.8l6.8,3L144.2,388.4z M32.4,358.1L22,353.4l-4.6,10.4l10.4,4.6L32.4,358.1z M50.2,365.9l-10.4-4.6l-4.6,10.4l10.4,4.6
	L50.2,365.9z M135.1,406.7l-5-2.2l-2.2,5l5,2.2L135.1,406.7z M152.8,414.6l-5-2.2l-2.2,5l5,2.2L152.8,414.6z M16,349.7l-12.3-5.4
	L0,352.7v4.6l10.6,4.7L16,349.7z M66.7,374.3l-8.6-3.8l-3.8,8.6l8.6,3.8L66.7,374.3z M84.4,382.1l-8.6-3.8l-3.8,8.6l8.6,3.8
	L84.4,382.1z M100.9,390.5l-6.8-3l-3,6.8l6.8,3L100.9,390.5z M118.6,398.4l-6.8-3l-3,6.8l6.8,3L118.6,398.4z M6.8,368L0,365v12.5
	l2.2,1L6.8,368z M9.5,381.7l10.4,4.6l4.6-10.4l-10.4-4.6L9.5,381.7z M109.5,416.6l-5-2.2l-2.2,5l5,2.2L109.5,416.6z M127.2,424.5
	l-5-2.2l-2.2,5l5,2.2L127.2,424.5z M28.6,389l8.6,3.8l3.8-8.6l-8.6-3.8L28.6,389z M58.8,392l-8.6-3.8l-3.8,8.6l8.6,3.8L58.8,392z
	 M75.3,400.4l-6.8-3l-3,6.8l6.8,3L75.3,400.4z M86.2,405.3l-3,6.8l6.8,3l3-6.8L86.2,405.3z M83.8,426.5l-5-2.2l-2.2,5l5,2.2
	L83.8,426.5z M101.6,434.4l-5-2.2l-2.2,5l5,2.2L101.6,434.4z M3,398.9l8.6,3.8l3.8-8.6l-8.6-3.8L3,398.9z M33.2,402l-8.6-3.8
	l-3.8,8.6l8.6,3.8L33.2,402z M49.6,410.3l-6.8-3l-3,6.8l6.8,3L49.6,410.3z M60.6,415.2l-3,6.8l6.8,3l3-6.8L60.6,415.2z M58.2,436.4
	l-5-2.2l-2.2,5l5,2.2L58.2,436.4z M76,444.3l-5-2.2l-2.2,5l5,2.2L76,444.3z M7.6,411.9L0,408.5v10.3l3.8,1.7L7.6,411.9z M24,420.2
	l-6.8-3l-3,6.8l6.8,3L24,420.2z M35,425.1l-3,6.8l6.8,3l3-6.8L35,425.1z M89.3,451.3L89.3,451.3l-1.4,3.1l3.1,1.4l0,0l0,0l1.4-3.1
	L89.3,451.3L89.3,451.3z M32.6,446.4l-5-2.2l-2.2,5l5,2.2L32.6,446.4z M50.4,454.2l-5-2.2l-2.2,5l5,2.2L50.4,454.2z M9.4,435l-3,6.8
	l6.8,3l3-6.8L9.4,435z M63.7,461.3L63.7,461.3l-1.4,3.1l3.1,1.4l0-0.1l0.1,0l1.4-3.1L63.7,461.3L63.7,461.3z M7,456.3l-5-2.2l-2,4.6
	v0.4l4.8,2.1L7,456.3z M24.8,464.1l-5-2.2l-2.2,5l5,2.2L24.8,464.1z M38,471.2L38,471.2l-1.5,3.1l3.1,1.4l0-0.1l0.1,0l1.4-3.1
	L38,471.2L38,471.2z M12.4,481.1L12.4,481.1l-1.4,3.1l3.1,1.4l0-0.1l0.1,0l1.4-3.1L12.4,481.1L12.4,481.1z M76.5,265.9l7-15.9
	l-15.9-7l-7,15.9L76.5,265.9z M94.2,273.7l7-15.9l-15.9-7l-7,15.9L94.2,273.7z M111.5,280.3l6.2-14.1l-14.1-6.2L97.4,274
	L111.5,280.3z M135.5,274l-14.1-6.2l-6.2,14.1l14.1,6.2L135.5,274z M186.2,298.6l-10.4-4.6l-4.6,10.4l10.4,4.6L186.2,298.6z
	 M203.9,306.5l-10.4-4.6l-4.6,10.4l10.4,4.6L203.9,306.5z M288.8,347.3l-5-2.2l-2.2,5l5,2.2L288.8,347.3z M306.5,355.1l-5-2.2
	l-2.2,5l5,2.2L306.5,355.1z M151.9,282.4l-12.3-5.4l-5.4,12.3l12.3,5.4L151.9,282.4z M169.7,290.2l-12.3-5.4l-5.4,12.3l12.3,5.4
	L169.7,290.2z M220.4,314.8l-8.6-3.8l-3.8,8.6l8.6,3.8L220.4,314.8z M238.1,322.7l-8.6-3.8l-3.8,8.6l8.6,3.8L238.1,322.7z
	 M254.6,331l-6.8-3l-3,6.8l6.8,3L254.6,331z M272.3,338.9l-6.8-3l-3,6.8l6.8,3L272.3,338.9z M321.6,366.6L321.6,366.6L321.6,366.6
	l1.4-3.1l-3.1-1.4l-1.4,3.1l2.1,0.9L321.6,366.6z M56.7,214.7l7-15.9l-15.9-7l-7,15.9L56.7,214.7z M74.4,222.5l7-15.9l-15.9-7
	l-7,15.9L74.4,222.5z M91.7,229l6.2-14.1l-14.1-6.2l-6.2,14.1L91.7,229z M109.4,236.9l6.2-14.1l-14.1-6.2l-6.2,14.1L109.4,236.9z
	 M166.3,247.4l-10.4-4.6l-4.6,10.4l10.4,4.6L166.3,247.4z M184.1,255.2l-10.4-4.6l-4.6,10.4l10.4,4.6L184.1,255.2z M269,296l-5-2.2
	l-2.2,5l5,2.2L269,296z M286.7,303.9l-5-2.2l-2.2,5l5,2.2L286.7,303.9z M114.4,238l12.3,5.4l5.4-12.3l-12.3-5.4L114.4,238z
	 M149.9,239l-12.3-5.4l-5.4,12.3l12.3,5.4L149.9,239z M200.5,263.6l-8.6-3.8l-3.8,8.6l8.6,3.8L200.5,263.6z M218.3,271.4l-8.6-3.8
	l-3.8,8.6l8.6,3.8L218.3,271.4z M234.7,279.8l-6.8-3l-3,6.8l6.8,3L234.7,279.8z M252.5,287.7l-6.8-3l-3,6.8l6.8,3L252.5,287.7z
	 M301.8,315.4l1-2.3l0.4-0.9l-3.1-1.4l-1.4,3.1l0,0l0,0L301.8,315.4z M46.8,189l7-15.9l-15.9-7l-7,15.9L46.8,189z M64.5,196.9
	l7-15.9l-15.9-7l-7,15.9L64.5,196.9z M81.8,203.4l6.2-14.1l-14.1-6.2l-6.2,14.1L81.8,203.4z M99.5,211.3l6.2-14.1l-14.1-6.2
	L85.4,205L99.5,211.3z M156.4,221.8l-10.4-4.6l-4.6,10.4l10.4,4.6L156.4,221.8z M174.2,229.6l-10.4-4.6l-4.6,10.4l10.4,4.6
	L174.2,229.6z M259,270.4l-5-2.2l-2.2,5l5,2.2L259,270.4z M276.8,278.3l-5-2.2l-2.2,5l5,2.2L276.8,278.3z M104.5,212.4l12.3,5.4
	l5.4-12.3l-12.3-5.4L104.5,212.4z M140,213.4l-12.3-5.4l-5.4,12.3l12.3,5.4L140,213.4z M178.2,242.8l8.6,3.8l3.8-8.6l-8.6-3.8
	L178.2,242.8z M196,250.6l8.6,3.8l3.8-8.6l-8.6-3.8L196,250.6z M215,258l6.8,3l3-6.8l-6.8-3L215,258z M232.8,265.8l6.8,3l3-6.8
	l-6.8-3L232.8,265.8z M311,294.5L311,294.5L311,294.5l-3.1-1.4l0,0l-1.4,3.1l3.1,1.4L311,294.5z M293.3,286.6L293.3,286.6
	L293.3,286.6l-3.1-1.4l-1.4,3.1l0,0v0l3.1,1.4L293.3,286.6z M36.8,163.4l7-15.9l-15.9-7l-7,15.9L36.8,163.4z M54.6,171.3l7-15.9
	l-15.9-7l-7,15.9L54.6,171.3z M71.9,177.8l6.2-14.1L64,157.5l-6.2,14.1L71.9,177.8z M89.6,185.7l6.2-14.1l-14.1-6.2l-6.2,14.1
	L89.6,185.7z M146.5,196.1l-10.4-4.6l-4.6,10.4l10.4,4.6L146.5,196.1z M164.3,204l-10.4-4.6l-4.6,10.4l10.4,4.6L164.3,204z
	 M249.1,244.8l-5-2.2l-2.2,5l5,2.2L249.1,244.8z M266.9,252.6l-5-2.2l-2.2,5l5,2.2L266.9,252.6z M94.6,186.8l12.3,5.4l5.4-12.3
	l-12.3-5.4L94.6,186.8z M112.4,194.6l12.3,5.4l5.4-12.3l-12.3-5.4L112.4,194.6z M168.3,217.2l8.6,3.8l3.8-8.6l-8.6-3.8L168.3,217.2z
	 M186.1,225l8.6,3.8l3.8-8.6l-8.6-3.8L186.1,225z M205.1,232.4l6.8,3l3-6.8l-6.8-3L205.1,232.4z M222.9,240.2l6.8,3l3-6.8l-6.8-3
	L222.9,240.2z M301.1,268.9L301.1,268.9L301.1,268.9l-3.1-1.4l-1.4,3.1l0,0l0,0l3.1,1.4L301.1,268.9z M282,264.1L282,264.1l0.4-0.9
	l1-2.2l0,0l0,0l-3.1-1.4l-1.4,3.1l0,0l0,0L282,264.1L282,264.1z M26.9,137.8l7-15.9l-15.9-7l-7,15.9L26.9,137.8z M44.7,145.7l7-15.9
	l-15.9-7l-7,15.9L44.7,145.7z M61.9,152.2l6.2-14.1l-14.1-6.2L47.8,146L61.9,152.2z M65.6,153.8l14.1,6.2l6.2-14.1l-14.1-6.2
	L65.6,153.8z M121.5,176.4L132,181l4.6-10.4l-10.4-4.6L121.5,176.4z M139.3,184.2l10.4,4.6l4.6-10.4l-10.4-4.6L139.3,184.2z
	 M232.1,221.9l5,2.2l2.2-5l-5-2.2L232.1,221.9z M249.8,229.8l5,2.2l2.2-5l-5-2.2L249.8,229.8z M84.7,161.2l12.3,5.4l5.4-12.3
	l-12.3-5.4L84.7,161.2z M102.5,169l12.3,5.4l5.4-12.3l-12.3-5.4L102.5,169z M158.4,191.5l8.6,3.8l3.8-8.6l-8.6-3.8L158.4,191.5z
	 M176.1,199.4l8.6,3.8l3.8-8.6l-8.6-3.8L176.1,199.4z M195.2,206.7l6.8,3l3-6.8l-6.8-3L195.2,206.7z M213,214.6l6.8,3l3-6.8l-6.8-3
	L213,214.6z M1.1,105.1l15.9,7l7-15.9l-15.9-7L1.1,105.1z M18.9,113l15.9,7l7-15.9l-15.9-7L18.9,113z M0,84.5v20.6l7.6-17.2L0,84.5z
	 M37.9,120.3l14.1,6.2l6.2-14.1l-14.1-6.2L37.9,120.3z M55.7,128.2l14.1,6.2l6.2-14.1l-14.1-6.2L55.7,128.2z M111.6,150.7l10.4,4.6
	l4.6-10.4l-10.4-4.6L111.6,150.7z M129.4,158.6l10.4,4.6l4.6-10.4l-10.4-4.6L129.4,158.6z M222.2,196.3l5,2.2l2.2-5l-5-2.2
	L222.2,196.3z M239.9,204.2l5,2.2l2.2-5l-5-2.2L239.9,204.2z M74.8,135.5l12.3,5.4l5.4-12.3l-12.3-5.4L74.8,135.5z M92.5,143.4
	l12.3,5.4l5.4-12.3L98,131.1L92.5,143.4z M148.5,165.9l8.6,3.8l3.8-8.6l-8.6-3.8L148.5,165.9z M166.2,173.8l8.6,3.8l3.8-8.6
	l-8.6-3.8L166.2,173.8z M185.3,181.1l6.8,3l3-6.8l-6.8-3L185.3,181.1z M203.1,189l6.8,3l3-6.8l-6.8-3L203.1,189z M14.2,70.6L0,64.4
	v19l7.1,3.1L14.2,70.6z M8.9,87.4l15.9,7l7-15.9l-15.9-7L8.9,87.4z M28,94.7l14.1,6.2l6.2-14.1l-14.1-6.2L28,94.7z M52,88.5
	l-6.2,14.1l14.1,6.2l6.2-14.1L52,88.5z M101.7,125.1l10.4,4.6l4.6-10.4l-10.4-4.6L101.7,125.1z M119.5,133l10.4,4.6l4.6-10.4
	l-10.4-4.6L119.5,133z M212.3,170.7l5,2.2l2.2-5l-5-2.2L212.3,170.7z M230,178.6l5,2.2l2.2-5l-5-2.2L230,178.6z M64.9,109.9
	l12.3,5.4l5.4-12.3l-12.3-5.4L64.9,109.9z M82.6,117.8l12.3,5.4l5.4-12.3l-12.3-5.4L82.6,117.8z M138.6,140.3l8.6,3.8l3.8-8.6
	l-8.6-3.8L138.6,140.3z M156.3,148.2l8.6,3.8l3.8-8.6l-8.6-3.8L156.3,148.2z M175.4,155.5l6.8,3l3-6.8l-6.8-3L175.4,155.5z
	 M193.2,163.4l6.8,3l3-6.8l-6.8-3L193.2,163.4z M0,43.1v11.5L4.2,45L0,43.1z M22,52.9l-15.9-7L0,59.6v2.6l15,6.6L22,52.9z
	 M32.2,75.3l6.2-14.1L24.4,55l-6.2,14.1L32.2,75.3z M50,83.2l6.2-14.1l-14.1-6.2L35.9,77L50,83.2z M91.8,99.5l10.4,4.6l4.6-10.4
	l-10.4-4.6L91.8,99.5z M109.6,107.4L120,112l4.6-10.4l-10.4-4.6L109.6,107.4z M202.3,145.1l5,2.2l2.2-5l-5-2.2L202.3,145.1z
	 M220.1,152.9l5,2.2l2.2-5l-5-2.2L220.1,152.9z M55,84.3l12.3,5.4l5.4-12.3L60.4,72L55,84.3z M72.7,92.2L85,97.6l5.4-12.3l-12.3-5.4
	L72.7,92.2z M128.7,114.7l8.6,3.8l3.8-8.6l-8.6-3.8L128.7,114.7z M146.4,122.5l8.6,3.8l3.8-8.6l-8.6-3.8L146.4,122.5z M165.5,129.9
	l6.8,3l3-6.8l-6.8-3L165.5,129.9z M183.3,137.7l6.8,3l3-6.8l-6.8-3L183.3,137.7z M12.1,27.3L0,21.9v19l5.1,2.2L12.1,27.3z M8.2,43.5
	l14.1,6.2l6.2-14.1l-14.1-6.2L8.2,43.5z M32.2,37.2L26,51.3l14.1,6.2l6.2-14.1L32.2,37.2z M81.9,73.9l10.4,4.6L97,68.1l-10.4-4.6
	L81.9,73.9z M99.7,81.7l10.4,4.6l4.6-10.4l-10.4-4.6L99.7,81.7z M192.4,119.5l5,2.2l2.2-5l-5-2.2L192.4,119.5z M210.2,127.3l5,2.2
	l2.2-5l-5-2.2L210.2,127.3z M45.1,58.7l12.3,5.4l5.4-12.3l-12.3-5.4L45.1,58.7z M62.8,66.5L75.1,72l5.4-12.3l-12.3-5.4L62.8,66.5z
	 M118.7,89.1l8.6,3.8l3.8-8.6l-8.6-3.8L118.7,89.1z M136.5,96.9l8.6,3.8l3.8-8.6l-8.6-3.8L136.5,96.9z M155.6,104.3l6.8,3l3-6.8
	l-6.8-3L155.6,104.3z M173.4,112.1l6.8,3l3-6.8l-6.8-3L173.4,112.1z M250.2,143.9l1.4-3.1l0,0l0,0l-3.1-1.4l-1.4,3.1l0,0l0,0
	L250.2,143.9z M0,0.7v5.9l2.2-5L0,0.7z M18.6,10L4.5,3.8L0,14v4.6l12.4,5.5L18.6,10z M16.1,25.7L30.2,32l6.2-14.1l-14.1-6.2
	L16.1,25.7z M72,48.3l10.4,4.6l4.6-10.4l-10.4-4.6L72,48.3z M89.8,56.1l10.4,4.6l4.6-10.4l-10.4-4.6L89.8,56.1z M182.5,93.9l5,2.2
	l2.2-5l-5-2.2L182.5,93.9z M200.3,101.7l5,2.2l2.2-5l-5-2.2L200.3,101.7z M35.1,33.1l12.3,5.4l5.4-12.3l-12.3-5.4L35.1,33.1z
	 M52.9,40.9l12.3,5.4l5.4-12.3l-12.3-5.4L52.9,40.9z M108.8,63.5l8.6,3.8l3.8-8.6l-8.6-3.8L108.8,63.5z M126.6,71.3l8.6,3.8l3.8-8.6
	l-8.6-3.8L126.6,71.3z M145.7,78.7l6.8,3l3-6.8l-6.8-3L145.7,78.7z M163.4,86.5l6.8,3l3-6.8l-6.8-3L163.4,86.5z M240.3,118.3
	l1.4-3.1l0,0l0,0l-3.1-1.4l-1.4,3.1l0,0l0,0L240.3,118.3z M222.5,110.4l1.4-3.1l0,0l0,0l-3.1-1.4l-1.4,3.1l0,0l0,0L222.5,110.4z
	 M23.1,0H6.2l0,0.1l14.1,6.2L23.1,0z M72.5,27.3l4.6-10.4l-10.4-4.6l-4.6,10.4L72.5,27.3z M79.8,30.5l10.4,4.6l4.6-10.4l-10.4-4.6
	L79.8,30.5z M172.6,68.2l5,2.2l2.2-5l-5-2.2L172.6,68.2z M190.4,76.1l5,2.2l2.2-5l-5-2.2L190.4,76.1z M42.9,0.6L41.6,0h-13l-3.3,7.5
	l12.3,5.4L42.9,0.6z M60.7,8.5L48.4,3L43,15.3l12.3,5.4L60.7,8.5z M107.5,41.7l3.8-8.6l-8.6-3.8l-3.8,8.6L107.5,41.7z M116.7,45.7
	l8.6,3.8l3.8-8.6l-8.6-3.8L116.7,45.7z M135.8,53l6.8,3l3-6.8l-6.8-3L135.8,53z M153.5,60.9l6.8,3l3-6.8l-6.8-3L153.5,60.9z M63.3,0
	h-4.5l3.7,1.7L63.3,0z M84.6,0H72.1l-2.2,4.9l10.4,4.6L84.6,0z M162.7,42.6l5,2.2l2.2-5l-5-2.2L162.7,42.6z M180.5,50.5l5,2.2l2.2-5
	l-5-2.2L180.5,50.5z M101.4,7.4l-8.6-3.8L89,12.2l8.6,3.8L101.4,7.4z M119.2,15.3l-8.6-3.8l-3.8,8.6l8.6,3.8L119.2,15.3z
	 M135.7,23.6l-6.8-3l-3,6.8l6.8,3L135.7,23.6z M153.4,31.5l-6.8-3l-3,6.8l6.8,3L153.4,31.5z M159.9,14.2l-5-2.2l-2.2,5l5,2.2
	L159.9,14.2z M177.7,22.1l-5-2.2l-2.2,5l5,2.2L177.7,22.1z M124.9,0h-8.1L116,1.8l6.8,3L124.9,0z M143.5,5.9l-6.8-3l-3,6.8l6.8,3
	L143.5,5.9z M210.5,41.4l1.4-3.1l0,0l0,0l-3.1-1.4l-1.4,3.1l0,0l0,0L210.5,41.4z M194.2,30.5l-3.1-1.4l-1.4,3.1l3.1,1.4L194.2,30.5z
	 M166.2,0h-3.9l3.3,1.4L166.2,0z M202,12.7l-3.1-1.4l-1.4,3.1l3.1,1.4L202,12.7z M184.2,4.8l-3.1-1.4l-1.4,3.1l3.1,1.4L184.2,4.8z
	 M66.6,240.3l7-15.9l-15.9-7l-7,15.9L66.6,240.3z M84.3,248.1l7-15.9l-15.9-7l-7,15.9L84.3,248.1z M31.6,225.9l17.8,7.9l7.9-17.8
	l-17.8-7.9l7.9-17.8l-17.8-7.9l7.9-17.8l-17.8-7.9l7.9-17.8l-17.8-7.9l7.9-17.8L0,105.8V127v21.2v4.9v16.3v21.2v10.5v10.7l13.8,6.1
	L31.6,225.9z M101.6,254.7l6.2-14.1l-14.1-6.2l-6.2,14.1L101.6,254.7z M119.4,262.5l6.2-14.1l-14.1-6.2l-6.2,14.1L119.4,262.5z
	 M176.2,273l-10.4-4.6l-4.6,10.4l10.4,4.6L176.2,273z M194,280.8l-10.4-4.6l-4.6,10.4l10.4,4.6L194,280.8z M278.9,321.6l-5-2.2
	l-2.2,5l5,2.2L278.9,321.6z M296.6,329.5l-5-2.2l-2.2,5l5,2.2L296.6,329.5z M142,256.8l-12.3-5.4l-5.4,12.3l12.3,5.4L142,256.8z
	 M159.8,264.6l-12.3-5.4l-5.4,12.3l12.3,5.4L159.8,264.6z M210.4,289.2l-8.6-3.8L198,294l8.6,3.8L210.4,289.2z M228.2,297.1
	l-8.6-3.8l-3.8,8.6l8.6,3.8L228.2,297.1z M244.7,305.4l-6.8-3l-3,6.8l6.8,3L244.7,305.4z M262.4,313.3l-6.8-3l-3,6.8l6.8,3
	L262.4,313.3z M330.2,347.1l0.6-1.4l-3.1-1.4l0,0l-1.4,3.1l3.1,1.4L330.2,347.1z M311.7,341l1.4-3.1l0,0l0,0l-3.1-1.4l-1.4,3.1l0,0
	l0,0L311.7,341z M457.9,338.2L457.9,338.2l-1.4,3.1l3.1,1.4l0,0l0,0l1.4-3.1L457.9,338.2L457.9,338.2z M436.7,290l3.1,1.4l1.4-3.1
	l-3.1-1.4L436.7,290z M454.4,297.9l3.1,1.4l1.4-3.1l-3.1-1.4L454.4,297.9z M428.8,307.8l3.1,1.4l1.4-3.1l-3.1-1.4L428.8,307.8z
	 M446.6,315.7l3.1,1.4l1.4-3.1l-3.1-1.4L446.6,315.7z M418.2,235.7L418.2,235.7l-1.4,3.1l3.1,1.4l0,0l0,0l1.4-3.1L418.2,235.7
	L418.2,235.7z M436,243.5L436,243.5l-1.4,3.1l3.1,1.4v0l0,0l1.4-3.1L436,243.5L436,243.5z M413.5,254.8l-3.1-1.4l-1.4,3.1l3.1,1.4
	L413.5,254.8z M426.8,264.4l3.1,1.4l1.4-3.1l-3.1-1.4L426.8,264.4z M472.2,305.7l3.1,1.4l1.4-3.1l-3.1-1.4L472.2,305.7z
	 M491.3,310.5L491.3,310.5l-1.4,3.1l3.1,1.4l0,0l0,0l1.4-3.1L491.3,310.5L491.3,310.5z M465.7,320.4L465.7,320.4l-1.4,3.1l3.1,1.4
	l0,0l0,0l1.4-3.1L465.7,320.4L465.7,320.4z M483.5,328.3L483.5,328.3l-1.4,3.1l3.1,1.4l0,0l0,0l1.4-3.1L483.5,328.3L483.5,328.3z
	 M471.5,259.2L471.5,259.2l-1.4,3.1l3.1,1.4l0,0l0,0l1.4-3.1L471.5,259.2L471.5,259.2z M444.5,272.3l3.1,1.4l1.4-3.1l-3.1-1.4
	L444.5,272.3z M462.3,280.1l3.1,1.4l1.4-3.1l-3.1-1.4L462.3,280.1z M509.1,318.4L509.1,318.4l-1.4,3.1l3.1,1.4l0,0l0,0l1.4-3.1
	L509.1,318.4L509.1,318.4z M507.1,274.9L507.1,274.9l-1.4,3.1l3.1,1.4l0,0l0,0l1.4-3.1L507.1,274.9L507.1,274.9z M480.1,288l3.1,1.4
	l1.4-3.1l-3.1-1.4L480.1,288z M497.8,295.8l3.1,1.4l1.4-3.1l-3.1-1.4L497.8,295.8z M517,300.6L517,300.6l-1.4,3.1l3.1,1.4l0,0l0,0
	l1.4-3.1L517,300.6L517,300.6z M534.7,308.5L534.7,308.5l-1.4,3.1l3.1,1.4l0,0l0,0l1.4-3.1L534.7,308.5L534.7,308.5z M0,564.3
	l0.4,0.2l1.4-3.1L0,560.5V564.3z M15.1,570.9l3.1,1.4l1.4-3.1l-3.1-1.4L15.1,570.9z M32.8,578.8l3.1,1.4l1.4-3.1l-3.1-1.4
	L32.8,578.8z M7.2,588.7l3.1,1.4l1.4-3.1l-3.1-1.4L7.2,588.7z M25,596.6l3.1,1.4l1.4-3.1l-3.1-1.4L25,596.6z M17.5,525.8l-3.1-1.4
	l-1.4,3.1l3.1,1.4L17.5,525.8z M9.7,543.6l-3.1-1.4l-1.4,3.1l3.1,1.4L9.7,543.6z M50.6,586.6l3.1,1.4l1.4-3.1l-3.1-1.4L50.6,586.6z
	 M68.4,594.5l3.1,1.4l1.4-3.1l-3.1-1.4L68.4,594.5z M35.3,533.7l-3.1-1.4l-1.4,3.1l3.1,1.4L35.3,533.7z M53.1,541.5l-3.1-1.4
	l-1.4,3.1l3.1,1.4L53.1,541.5z M27.5,551.4l-3.1-1.4l-1.4,3.1l3.1,1.4L27.5,551.4z M40.7,561l3.1,1.4l1.4-3.1l-3.1-1.4L40.7,561z
	 M31.9,493.3L31.9,493.3l1.4-3.1l-3.1-1.4l0,0.1l-0.1,0l-1.4,3.1L31.9,493.3L31.9,493.3z M6.3,503.3L6.3,503.3l1.4-3.1l-3.1-1.4
	l0,0.1l-0.1,0l-1.4,3.1L6.3,503.3L6.3,503.3z M25.4,508l-3.1-1.4l-1.4,3.1l3.1,1.4L25.4,508z M87.2,600h2.1l-1.8-0.8L87.2,600z
	 M70.8,549.4l-3.1-1.4l-1.4,3.1l3.1,1.4L70.8,549.4z M88.6,557.2l-3.1-1.4l-1.4,3.1l3.1,1.4L88.6,557.2z M58.5,568.9l3.1,1.4
	l1.4-3.1l-3.1-1.4L58.5,568.9z M76.2,576.7l3.1,1.4l1.4-3.1l-3.1-1.4L76.2,576.7z M51,498.1l-3.1-1.4l-1.4,3.1l3.1,1.4L51,498.1z
	 M68.8,506l-3.1-1.4l-1.4,3.1l3.1,1.4L68.8,506z M43.2,515.9l-3.1-1.4l-1.4,3.1l3.1,1.4L43.2,515.9z M60.9,523.8l-3.1-1.4l-1.4,3.1
	l3.1,1.4L60.9,523.8z M101.9,566.8l3.1,1.4l1.4-3.1l-3.1-1.4L101.9,566.8z M119.6,574.7l3.1,1.4l1.4-3.1l-3.1-1.4L119.6,574.7z
	 M94,584.6l3.1,1.4l1.4-3.1l-3.1-1.4L94,584.6z M111.8,592.4l3.1,1.4l1.4-3.1l-3.1-1.4L111.8,592.4z M86.5,513.8l-3.1-1.4l-1.4,3.1
	l3.1,1.4L86.5,513.8z M104.3,521.7l-3.1-1.4l-1.4,3.1l3.1,1.4L104.3,521.7z M78.7,531.6l-3.1-1.4l-1.4,3.1l3.1,1.4L78.7,531.6z
	 M96.5,539.5l-3.1-1.4l-1.4,3.1l3.1,1.4L96.5,539.5z M83.1,473.5L83.1,473.5l1.4-3.1l-3.1-1.4l0,0.1l-0.1,0l-1.4,3.1L83.1,473.5
	L83.1,473.5z M57.5,483.4L57.5,483.4l1.4-3.1l-3.1-1.4l0,0.1l-0.1,0l-1.4,3.1L57.5,483.4L57.5,483.4z M76.6,488.2l-3.1-1.4l-1.4,3.1
	l3.1,1.4L76.6,488.2z M137.4,582.5l3.1,1.4l1.4-3.1l-3.1-1.4L137.4,582.5z M155.2,590.4l3.1,1.4l1.4-3.1l-3.1-1.4L155.2,590.4z
	 M129.7,600h3.7l0.6-1.5l-3.1-1.4L129.7,600z M122.1,529.5l-3.1-1.4l-1.4,3.1l3.1,1.4L122.1,529.5z M139.8,537.4l-3.1-1.4l-1.4,3.1
	l3.1,1.4L139.8,537.4z M114.2,547.3l-3.1-1.4l-1.4,3.1l3.1,1.4L114.2,547.3z M132,555.2l-3.1-1.4l-1.4,3.1l3.1,1.4L132,555.2z
	 M102.3,478.3l-3.1-1.4l-1.4,3.1l3.1,1.4L102.3,478.3z M120,486.2l-3.1-1.4l-1.4,3.1l3.1,1.4L120,486.2z M94.4,496.1l-3.1-1.4
	l-1.4,3.1l3.1,1.4L94.4,496.1z M112.2,503.9l-3.1-1.4l-1.4,3.1l3.1,1.4L112.2,503.9z M172.9,598.2l3.1,1.4l1.4-3.1l-3.1-1.4
	L172.9,598.2z M157.6,545.2l-3.1-1.4l-1.4,3.1l3.1,1.4L157.6,545.2z M175.4,553.1l-3.1-1.4l-1.4,3.1l3.1,1.4L175.4,553.1z
	 M145.3,564.8l3.1,1.4l1.4-3.1l-3.1-1.4L145.3,564.8z M163,572.6l3.1,1.4l1.4-3.1l-3.1-1.4L163,572.6z M137.8,494l-3.1-1.4l-1.4,3.1
	l3.1,1.4L137.8,494z M155.6,501.9l-3.1-1.4l-1.4,3.1l3.1,1.4L155.6,501.9z M130,511.8l-3.1-1.4l-1.4,3.1l3.1,1.4L130,511.8z
	 M147.7,519.6l-3.1-1.4l-1.4,3.1l3.1,1.4L147.7,519.6z M116.6,445.9L116.6,445.9l1.4-3.1l-3.1-1.4l0,0l0,0l-1.4,3.1L116.6,445.9
	L116.6,445.9z M134.4,453.7L134.4,453.7l1.4-3.1l-3.1-1.4l0,0l0,0l-1.4,3.1L134.4,453.7L134.4,453.7z M108.8,463.6L108.8,463.6
	l1.4-3.1l-3.1-1.4l0,0l0,0l-1.4,3.1L108.8,463.6L108.8,463.6z M127.9,468.4l-3.1-1.4l-1.4,3.1l3.1,1.4L127.9,468.4z M188.6,562.7
	l3.1,1.4l1.4-3.1l-3.1-1.4L188.6,562.7z M206.4,570.6l3.1,1.4l1.4-3.1l-3.1-1.4L206.4,570.6z M180.8,580.5l3.1,1.4l1.4-3.1l-3.1-1.4
	L180.8,580.5z M198.5,588.3l3.1,1.4l1.4-3.1l-3.1-1.4L198.5,588.3z M173.3,509.7l-3.1-1.4l-1.4,3.1l3.1,1.4L173.3,509.7z
	 M191.1,517.6l-3.1-1.4l-1.4,3.1l3.1,1.4L191.1,517.6z M165.5,527.5l-3.1-1.4l-1.4,3.1l3.1,1.4L165.5,527.5z M183.2,535.3l-3.1-1.4
	l-1.4,3.1l3.1,1.4L183.2,535.3z M153.5,458.5l-3.1-1.4l-1.4,3.1l3.1,1.4L153.5,458.5z M171.3,466.3l-3.1-1.4l-1.4,3.1l3.1,1.4
	L171.3,466.3z M145.7,476.2l-3.1-1.4l-1.4,3.1l3.1,1.4L145.7,476.2z M163.4,484.1l-3.1-1.4l-1.4,3.1l3.1,1.4L163.4,484.1z
	 M142.2,436L142.2,436l1.4-3.1l-3.1-1.4l0,0l0,0l-1.4,3.1L142.2,436L142.2,436z M224.2,578.4l3.1,1.4l1.4-3.1l-3.1-1.4L224.2,578.4z
	 M241.9,586.3l3.1,1.4l1.4-3.1l-3.1-1.4L241.9,586.3z M216.3,596.2l3.1,1.4l1.4-3.1l-3.1-1.4L216.3,596.2z M208.9,525.4l-3.1-1.4
	l-1.4,3.1l3.1,1.4L208.9,525.4z M226.6,533.3l-3.1-1.4l-1.4,3.1l3.1,1.4L226.6,533.3z M201,543.2l-3.1-1.4l-1.4,3.1l3.1,1.4
	L201,543.2z M218.8,551l-3.1-1.4l-1.4,3.1l3.1,1.4L218.8,551z M189,474.2l-3.1-1.4l-1.4,3.1l3.1,1.4L189,474.2z M206.8,482l-3.1-1.4
	l-1.4,3.1l3.1,1.4L206.8,482z M181.2,492l-3.1-1.4l-1.4,3.1l3.1,1.4L181.2,492z M199,499.8l-3.1-1.4l-1.4,3.1l3.1,1.4L199,499.8z
	 M167.9,426L167.9,426l1.4-3.1l-3.1-1.4l0,0l0,0l-1.4,3.1L167.9,426L167.9,426z M185.6,433.9L185.6,433.9l1.4-3.1l-3.1-1.4l0,0l0,0
	l-1.4,3.1L185.6,433.9L185.6,433.9z M160,443.8L160,443.8l1.4-3.1l-3.1-1.4l0,0l0,0l-1.4,3.1L160,443.8L160,443.8z M179.1,448.6
	l-3.1-1.4l-1.4,3.1l3.1,1.4L179.1,448.6z M259.7,594.1l3.1,1.4l1.4-3.1l-3.1-1.4L259.7,594.1z M278.3,600h3.2l-2.6-1.2L278.3,600z
	 M244.4,541.1l-3.1-1.4l-1.4,3.1l3.1,1.4L244.4,541.1z M262.2,549l-3.1-1.4l-1.4,3.1l3.1,1.4L262.2,549z M232,560.6l3.1,1.4l1.4-3.1
	l-3.1-1.4L232,560.6z M249.8,568.5l3.1,1.4l1.4-3.1l-3.1-1.4L249.8,568.5z M224.6,489.9l-3.1-1.4l-1.4,3.1l3.1,1.4L224.6,489.9z
	 M242.4,497.7l-3.1-1.4l-1.4,3.1l3.1,1.4L242.4,497.7z M216.7,507.7l-3.1-1.4l-1.4,3.1l3.1,1.4L216.7,507.7z M234.5,515.5l-3.1-1.4
	l-1.4,3.1l3.1,1.4L234.5,515.5z M204.8,438.7l-3.1-1.4l-1.4,3.1l3.1,1.4L204.8,438.7z M222.5,446.5l-3.1-1.4l-1.4,3.1l3.1,1.4
	L222.5,446.5z M196.9,456.4l-3.1-1.4l-1.4,3.1l3.1,1.4L196.9,456.4z M214.7,464.3l-3.1-1.4l-1.4,3.1l3.1,1.4L214.7,464.3z
	 M193.5,416.1L193.5,416.1l1.4-3.1l-3.1-1.4l0,0l0,0l-1.4,3.1L193.5,416.1L193.5,416.1z M279.9,556.8l-3.1-1.4l-1.4,3.1l3.1,1.4
	L279.9,556.8z M293.2,566.4l3.1,1.4l1.4-3.1l-3.1-1.4L293.2,566.4z M267.6,576.3l3.1,1.4l1.4-3.1l-3.1-1.4L267.6,576.3z
	 M285.3,584.2l3.1,1.4l1.4-3.1l-3.1-1.4L285.3,584.2z M260.1,505.6l-3.1-1.4l-1.4,3.1l3.1,1.4L260.1,505.6z M277.9,513.5l-3.1-1.4
	l-1.4,3.1l3.1,1.4L277.9,513.5z M252.3,523.4l-3.1-1.4l-1.4,3.1l3.1,1.4L252.3,523.4z M270,531.2l-3.1-1.4l-1.4,3.1l3.1,1.4
	L270,531.2z M240.3,454.4l-3.1-1.4l-1.4,3.1l3.1,1.4L240.3,454.4z M258.1,462.2l-3.1-1.4l-1.4,3.1l3.1,1.4L258.1,462.2z
	 M232.5,472.1l-3.1-1.4l-1.4,3.1l3.1,1.4L232.5,472.1z M250.2,480l-3.1-1.4l-1.4,3.1l3.1,1.4L250.2,480z M219.1,406.2L219.1,406.2
	l1.4-3.1l-3.1-1.4l0,0l0,0l-1.4,3.1L219.1,406.2L219.1,406.2z M236.9,414.1L236.9,414.1l1.4-3.1l-3.1-1.4l0,0l0,0l-1.4,3.1
	L236.9,414.1L236.9,414.1z M211.3,424L211.3,424l1.4-3.1l-3.1-1.4l0,0l0,0l-1.4,3.1L211.3,424L211.3,424z M230.4,428.7l-3.1-1.4
	l-1.4,3.1l3.1,1.4L230.4,428.7z M311,574.3l3.1,1.4l1.4-3.1l-3.1-1.4L311,574.3z M328.7,582.1l3.1,1.4l1.4-3.1l-3.1-1.4L328.7,582.1
	z M303.1,592.1l3.1,1.4l1.4-3.1l-3.1-1.4L303.1,592.1z M320.9,599.9l0.2,0.1h3.5l0.8-1.8l-3.1-1.4L320.9,599.9z M295.6,521.3
	l-3.1-1.4l-1.4,3.1l3.1,1.4L295.6,521.3z M313.4,529.2l-3.1-1.4l-1.4,3.1l3.1,1.4L313.4,529.2z M287.8,539.1l-3.1-1.4l-1.4,3.1
	l3.1,1.4L287.8,539.1z M305.6,546.9l-3.1-1.4l-1.4,3.1l3.1,1.4L305.6,546.9z M275.8,470.1l-3.1-1.4l-1.4,3.1l3.1,1.4L275.8,470.1z
	 M293.6,477.9l-3.1-1.4l-1.4,3.1l3.1,1.4L293.6,477.9z M268,487.8l-3.1-1.4l-1.4,3.1l3.1,1.4L268,487.8z M285.7,495.7l-3.1-1.4
	l-1.4,3.1l3.1,1.4L285.7,495.7z M256,418.8l-3.1-1.4l-1.4,3.1l3.1,1.4L256,418.8z M273.8,426.7l-3.1-1.4l-1.4,3.1l3.1,1.4
	L273.8,426.7z M248.2,436.6l-3.1-1.4l-1.4,3.1l3.1,1.4L248.2,436.6z M265.9,444.5l-3.1-1.4l-1.4,3.1l3.1,1.4L265.9,444.5z
	 M244.7,396.3L244.7,396.3l1.4-3.1l-3.1-1.4l0,0l0,0l-1.4,3.1L244.7,396.3L244.7,396.3z M346.5,590l3.1,1.4l1.4-3.1l-3.1-1.4
	L346.5,590z M364.2,597.8l3.1,1.4l1.4-3.1l-3.1-1.4L364.2,597.8z M331.2,537l-3.1-1.4l-1.4,3.1l3.1,1.4L331.2,537z M348.9,544.9
	l-3.1-1.4l-1.4,3.1l3.1,1.4L348.9,544.9z M323.3,554.8l-3.1-1.4l-1.4,3.1l3.1,1.4L323.3,554.8z M336.6,564.4l3.1,1.4l1.4-3.1
	l-3.1-1.4L336.6,564.4z M311.4,485.8l-3.1-1.4l-1.4,3.1l3.1,1.4L311.4,485.8z M329.1,493.6l-3.1-1.4l-1.4,3.1l3.1,1.4L329.1,493.6z
	 M303.5,503.5l-3.1-1.4l-1.4,3.1l3.1,1.4L303.5,503.5z M321.3,511.4l-3.1-1.4l-1.4,3.1l3.1,1.4L321.3,511.4z M291.5,434.5l-3.1-1.4
	l-1.4,3.1l3.1,1.4L291.5,434.5z M309.3,442.4l-3.1-1.4l-1.4,3.1l3.1,1.4L309.3,442.4z M283.7,452.3l-3.1-1.4l-1.4,3.1l3.1,1.4
	L283.7,452.3z M301.5,460.2l-3.1-1.4l-1.4,3.1l3.1,1.4L301.5,460.2z M270.3,386.4L270.3,386.4l1.4-3.1l-3.1-1.4l0,0l0,0l-1.4,3.1
	L270.3,386.4L270.3,386.4z M288.1,394.3L288.1,394.3l1.4-3.1l-3.1-1.4l0,0l0,0l-1.4,3.1L288.1,394.3L288.1,394.3z M262.5,404.2
	L262.5,404.2l1.4-3.1l-3.1-1.4l0,0l0,0l-1.4,3.1L262.5,404.2L262.5,404.2z M281.6,408.9l-3.1-1.4l-1.4,3.1l3.1,1.4L281.6,408.9z
	 M366.7,552.7l-3.1-1.4l-1.4,3.1l3.1,1.4L366.7,552.7z M380,562.3l3.1,1.4l1.4-3.1l-3.1-1.4L380,562.3z M354.4,572.2l3.1,1.4
	l1.4-3.1l-3.1-1.4L354.4,572.2z M372.1,580.1l3.1,1.4l1.4-3.1l-3.1-1.4L372.1,580.1z M346.9,501.5l-3.1-1.4l-1.4,3.1l3.1,1.4
	L346.9,501.5z M364.7,509.3l-3.1-1.4l-1.4,3.1l3.1,1.4L364.7,509.3z M339,519.2l-3.1-1.4l-1.4,3.1l3.1,1.4L339,519.2z M356.8,527.1
	l-3.1-1.4l-1.4,3.1l3.1,1.4L356.8,527.1z M327.1,450.2l-3.1-1.4l-1.4,3.1l3.1,1.4L327.1,450.2z M344.8,458.1l-3.1-1.4l-1.4,3.1
	l3.1,1.4L344.8,458.1z M319.2,468l-3.1-1.4l-1.4,3.1l3.1,1.4L319.2,468z M337,475.9l-3.1-1.4l-1.4,3.1l3.1,1.4L337,475.9z
	 M307.3,399l-3.1-1.4l-1.4,3.1l3.1,1.4L307.3,399z M325,406.9l-3.1-1.4l-1.4,3.1l3.1,1.4L325,406.9z M299.4,416.8l-3.1-1.4l-1.4,3.1
	l3.1,1.4L299.4,416.8z M317.2,424.6l-3.1-1.4l-1.4,3.1l3.1,1.4L317.2,424.6z M296,376.5L296,376.5l1.4-3.1l-3.1-1.4l0,0l0,0
	l-1.4,3.1L296,376.5L296,376.5z M397.7,570.2l3.1,1.4l1.4-3.1l-3.1-1.4L397.7,570.2z M389.9,587.9l3.1,1.4l1.4-3.1l-3.1-1.4
	L389.9,587.9z M407.7,595.8l3.1,1.4l1.4-3.1l-3.1-1.4L407.7,595.8z M382.4,517.2l-3.1-1.4l-1.4,3.1l3.1,1.4L382.4,517.2z
	 M398.8,528.2L398.8,528.2l0.7-1.7l0.7-1.5l0,0l0,0l-3.1-1.4l0,0l0,0l-1.4,3.1L398.8,528.2L398.8,528.2z M374.6,534.9l-3.1-1.4
	l-1.4,3.1l3.1,1.4L374.6,534.9z M392.3,542.8l-3.1-1.4l-1.4,3.1l3.1,1.4L392.3,542.8z M362.6,465.9l-3.1-1.4l-1.4,3.1l3.1,1.4
	L362.6,465.9z M379.8,475.1l0.6-1.3l-3.1-1.4l0,0h0l-1.4,3.1l3.1,1.4L379.8,475.1z M354.8,483.7l-3.1-1.4l-1.4,3.1l3.1,1.4
	L354.8,483.7z M372.5,491.6l-3.1-1.4l-1.4,3.1l3.1,1.4L372.5,491.6z M342.8,414.7l-3.1-1.4l-1.4,3.1l3.1,1.4L342.8,414.7z
	 M359.4,425.2l1.2-2.6l-3.1-1.4l0,0l-1.4,3.1l3.1,1.4L359.4,425.2z M334.9,432.5l-3.1-1.4l-1.4,3.1l3.1,1.4L334.9,432.5z
	 M352.7,440.3l-3.1-1.4l-1.4,3.1l3.1,1.4L352.7,440.3z M314.1,383.7l1.1-2.4l-3.1-1.4l0,0h0l-1.4,3.1l0,0l0.2,0.1l3,1.3L314.1,383.7
	z M332.9,389.1l-3.1-1.4l-1.4,3.1l3.1,1.4L332.9,389.1z M317.8,318.7l-0.8,1.8l-0.6,1.4l3.1,1.4l1.4-3.1l0,0l0,0L317.8,318.7z
	 M259,211.5L259,211.5L259,211.5l3.1,1.4l1.4-3.1h0l0,0l-3.1-1.4L259,211.5z M276.8,219.4L276.8,219.4L276.8,219.4l3.1,1.4l1.4-3.1
	h0l0,0l-3.1-1.4L276.8,219.4z M268.9,237.1L268.9,237.1L268.9,237.1l3.1,1.4l1.4-3.1l0,0l0,0l-3.1-1.4L268.9,237.1z M260.4,165.9
	l-2.1-0.9l0,0l-1.4,3.1l0,0l0,0l3.1,1.4l1.4-3.1l0,0l0,0l0,0l0,0L260.4,165.9z M250.5,182.8l-1.4,3.1l0,0l0,0l3.1,1.4l1.4-3.1l0,0
	l0,0L250.5,182.8z M416.6,536l1.4-3.1h0l0,0l-3.1-1.4l-1.4,3.1l0,0l0,0L416.6,536z M408.7,553.8l1.4-3.1l0,0l-3.1-1.4l0,0l-0.1,0.3
	l-1.3,2.8l0,0l0,0L408.7,553.8z M396.8,484.8l1.4-3.1l0,0l0,0l-3.1-1.4l-1.4,3.1l0,0l0,0L396.8,484.8z M388.9,502.5l1.4-3.1l0,0l0,0
	l-3.1-1.4l-1.4,3.1l0,0l0,0L388.9,502.5z M406.7,510.4l1.4-3.1l0,0l0,0l-2.1-0.9l-1-0.4l0,0h0l-1.4,3.1l0,0l0,0L406.7,510.4z
	 M376.9,433.5l0.2-0.4l1.2-2.7l-3.1-1.4v0l0,0l-0.7,1.5l-0.7,1.7L376.9,433.5L376.9,433.5z M369.1,451.3l1.4-3.1v0l0,0l-3.1-1.4l0,0
	l-0.2,0.5l-1.2,2.6l0,0l0,0L369.1,451.3z M349.3,400.1L349.3,400.1l1.4-3.1l-3.1-1.4l-1.4,3.1L349.3,400.1L349.3,400.1z M367,407.9
	L367,407.9L367,407.9l1.4-3.1l0,0l0,0l-1.4-0.6l-1.7-0.8l0,0l-0.7,1.6l-0.7,1.6l1.2,0.5L367,407.9z M338.7,327.9l-3.1-1.4l-1.4,3.1
	l3.1,1.4L338.7,327.9z M356.5,335.8l-3.1-1.4l-1.4,3.1l3.1,1.4L356.5,335.8z M348.6,353.6l-3.1-1.4l-1.4,3.1l3.1,1.4L348.6,353.6z
	 M318.9,276.7l-3.1-1.4l-1.4,3.1l3.1,1.4L318.9,276.7z M333.5,283.2l-1.4,3.1l3.1,1.4l1.4-3.1L333.5,283.2z M328.8,302.3l-3.1-1.4
	l-1.4,3.1l3.1,1.4L328.8,302.3z M294.5,227.2l3.1,1.4l1.4-3.1l-3.1-1.4L294.5,227.2z M312.3,235.1l3.1,1.4l1.4-3.1l-3.1-1.4
	L312.3,235.1z M288.1,241.9L288.1,241.9l-0.6,1.4l-0.7,1.7h0l0,0l3.1,1.4l0,0h0l0.3-0.7l1.1-2.4h0l0,0L288.1,241.9L288.1,241.9z
	 M305.8,249.7l-1.4,3.1l3.1,1.4l1.4-3.1L305.8,249.7z M293.9,180.7L293.9,180.7l-0.7,1.6l-0.7,1.6l3.1,1.4l0,0l1.4-3.1l0,0
	L293.9,180.7z M267.5,192.4l-0.6,1.3l3.1,1.4l0,0h0l1.4-3.1l-3.1-1.4L267.5,192.4z M284.6,201.6l3.1,1.4l1.4-3.1l-3.1-1.4
	L284.6,201.6z M374.2,343.7l-3.1-1.4l-1.4,3.1l3.1,1.4L374.2,343.7z M351.3,291l-1.4,3.1l3.1,1.4l1.4-3.1L351.3,291z M372.2,300.3
	l-3.1-1.4l-1.4,3.1l3.1,1.4L372.2,300.3z M346.6,310.2l-3.1-1.4l-1.4,3.1l3.1,1.4L346.6,310.2z M364.3,318l-3.1-1.4l-1.4,3.1
	l3.1,1.4L364.3,318z M330.1,242.9l3.1,1.4l1.4-3.1l-3.1-1.4L330.1,242.9z M347.8,250.8l3.1,1.4l1.4-3.1l-3.1-1.4L347.8,250.8z
	 M323.6,257.6l-1.4,3.1l3.1,1.4l1.4-3.1L323.6,257.6z M341.4,265.4l-1.4,3.1l3.1,1.4l1.4-3.1L341.4,265.4z M329.4,196.4l-1.4,3.1v0
	l3.1,1.4l1.4-3.1l0,0l-1-0.5L329.4,196.4z M302.4,209.5l3.1,1.4l1.4-3.1l-3.1-1.4L302.4,209.5z M320.2,217.3l3.1,1.4l1.4-3.1
	l-3.1-1.4L320.2,217.3z M390,308.1l-3.1-1.4l-1.4,3.1l3.1,1.4L390,308.1z M407.7,316l-3.1-1.4l-1.4,3.1l3.1,1.4L407.7,316z
	 M382.1,325.9l-3.1-1.4l-1.4,3.1l3.1,1.4L382.1,325.9z M399.9,333.7l-3.1-1.4l-1.4,3.1l3.1,1.4L399.9,333.7z M367,255.5l-1.4,3.1
	l3.1,1.4l1.4-3.1L367,255.5z M387.9,264.7l-3.1-1.4l-1.4,3.1l3.1,1.4L387.9,264.7z M359.2,273.3l-1.4,3.1l3.1,1.4l1.4-3.1
	L359.2,273.3z M376.9,281.1l-1.4,3.1l3.1,1.4l1.4-3.1L376.9,281.1z M337.9,225.2l3.1,1.4l1.4-3.1l-3.1-1.4L337.9,225.2z M355.7,233
	l3.1,1.4l1.4-3.1l-3.1-1.4L355.7,233z M425.5,323.8l-3.1-1.4l-1.4,3.1l3.1,1.4L425.5,323.8z M440.1,330.3L440.1,330.3l-1.4,3.1
	l3.1,1.4l0,0l0,0l1.4-3.1L440.1,330.3L440.1,330.3z M405.7,272.6l-3.1-1.4l-1.4,3.1l3.1,1.4L405.7,272.6z M423.4,280.4l-3.1-1.4
	l-1.4,3.1l3.1,1.4L423.4,280.4z M394.7,289l-1.4,3.1l3.1,1.4l1.4-3.1L394.7,289z M415.6,298.2l-3.1-1.4l-1.4,3.1l3.1,1.4
	L415.6,298.2z M399.1,231L399.1,231l3.1,1.4l0,0l0,0l1-2.3l0.3-0.8l-3.1-1.4L399.1,231z M373.5,240.9l3.1,1.4l1.4-3.1l-3.1-1.4
	L373.5,240.9z M391.2,248.7l3.1,1.4l1.4-3.1l-3.1-1.4L391.2,248.7z M875.7,161.9l-0.1,0l-1.4,3.1l3.1,1.4l0.1-0.1l0.1,0l1.4-3.1
	l-3.1-1.4L875.7,161.9z M893.4,169.7l-0.1,0l-1.4,3.1l3.1,1.4l0.1-0.1l0.1,0l1.4-3.1l-3.1-1.4L893.4,169.7z M867.8,179.7l-0.1,0
	l-1.4,3.1l3.1,1.4l0-0.1l0.1,0l1.4-3.1l-3.1-1.4L867.8,179.7z M854.5,113.7l3.1,1.4l1.4-3.1l-3.1-1.4L854.5,113.7z M872.3,121.5
	l3.1,1.4l1.4-3.1l-3.1-1.4L872.3,121.5z M846.7,131.4l3.1,1.4l1.4-3.1l-3.1-1.4L846.7,131.4z M864.4,139.3l3.1,1.4l1.4-3.1l-3.1-1.4
	L864.4,139.3z M834.7,62.4l3.1,1.4l1.4-3.1l-3.1-1.4L834.7,62.4z M852.5,70.3l3.1,1.4l1.4-3.1l-3.1-1.4L852.5,70.3z M826.9,80.2
	l3.1,1.4l1.4-3.1l-3.1-1.4L826.9,80.2z M844.6,88.1l3.1,1.4l1.4-3.1l-3.1-1.4L844.6,88.1z M819.4,9.5l-3.1-1.4l-1.4,3.1l3.1,1.4
	L819.4,9.5z M837.2,17.3l-3.1-1.4l-1.4,3.1l3.1,1.4L837.2,17.3z M811.5,27.2l-3.1-1.4L807,29l3.1,1.4L811.5,27.2z M829.3,35.1
	l-3.1-1.4l-1.4,3.1l3.1,1.4L829.3,35.1z M890.1,129.4l3.1,1.4l1.4-3.1l-3.1-1.4L890.1,129.4z M907.8,137.2l3.1,1.4l1.4-3.1l-3.1-1.4
	L907.8,137.2z M882.2,147.1l3.1,1.4l1.4-3.1l-3.1-1.4L882.2,147.1z M901.3,152l-0.1-0.1l-1.4,3.1l3.1,1.4l0.1-0.1l0.1,0.1l1.4-3.1
	l-3.1-1.4L901.3,152z M870.2,78.1l3.1,1.4l1.4-3.1l-3.1-1.4L870.2,78.1z M888,86l3.1,1.4l1.4-3.1l-3.1-1.4L888,86z M862.4,95.9
	l3.1,1.4l1.4-3.1l-3.1-1.4L862.4,95.9z M880.2,103.8l3.1,1.4l1.4-3.1l-3.1-1.4L880.2,103.8z M854.9,25.2l-3.1-1.4l-1.4,3.1l3.1,1.4
	L854.9,25.2z M872.7,33l-3.1-1.4l-1.4,3.1l3.1,1.4L872.7,33z M842.6,44.7l3.1,1.4l1.4-3.1l-3.1-1.4L842.6,44.7z M860.3,52.5l3.1,1.4
	l1.4-3.1l-3.1-1.4L860.3,52.5z M844.8,0h-3.7l-0.6,1.3l3.1,1.4L844.8,0z M926.9,142.1l-0.1-0.1l-1.4,3.1l3.1,1.4l0.1-0.1l0.1,0.1
	l1.4-3.1l-3.1-1.4L926.9,142.1z M944.7,149.9l-0.1-0.1l-1.4,3.1l3.1,1.4l0.1-0.1l0.1,0.1l1.4-3.1l-3.1-1.4L944.7,149.9z
	 M919.1,159.8l-0.1-0.1l-1.4,3.1l3.1,1.4l0.1-0.1l0.1,0.1l1.4-3.1l-3.1-1.4L919.1,159.8z M905.8,93.8l3.1,1.4l1.4-3.1l-3.1-1.4
	L905.8,93.8z M923.6,101.7l3.1,1.4l1.4-3.1l-3.1-1.4L923.6,101.7z M897.9,111.6l3.1,1.4l1.4-3.1l-3.1-1.4L897.9,111.6z M915.7,119.5
	l3.1,1.4l1.4-3.1l-3.1-1.4L915.7,119.5z M889.1,44l1.4-3.1l-3.1-1.4l-1.4,3.1L889.1,44z M903.7,50.5l3.1,1.4l1.4-3.1l-3.1-1.4
	L903.7,50.5z M878.1,60.4l3.1,1.4l1.4-3.1l-3.1-1.4L878.1,60.4z M895.9,68.2l3.1,1.4l1.4-3.1l-3.1-1.4L895.9,68.2z M887.3,0h-1.7
	l1.4,0.6L887.3,0z M862.8,7.4L859.7,6l-1.4,3.1l3.1,1.4L862.8,7.4z M880.6,15.2l-3.1-1.4l-1.4,3.1l3.1,1.4L880.6,15.2z M941.3,109.5
	l3.1,1.4l1.4-3.1l-3.1-1.4L941.3,109.5z M959.1,117.4l3.1,1.4l1.4-3.1l-3.1-1.4L959.1,117.4z M933.5,127.3l3.1,1.4l1.4-3.1l-3.1-1.4
	L933.5,127.3z M952.6,132.2l-0.1-0.1l-1.4,3.1l3.1,1.4l0.1-0.1l0.1,0.1l1.4-3.1l-3.1-1.4L952.6,132.2z M921.5,58.3l3.1,1.4l1.4-3.1
	l-3.1-1.4L921.5,58.3z M939.3,66.2l3.1,1.4l1.4-3.1l-3.1-1.4L939.3,66.2z M913.6,76.1l3.1,1.4l1.4-3.1l-3.1-1.4L913.6,76.1z
	 M931.4,83.9l3.1,1.4l1.4-3.1l-3.1-1.4L931.4,83.9z M906.2,5.3l-3.1-1.4l-1.4,3.1l3.1,1.4L906.2,5.3z M924,13.2l-3.1-1.4l-1.4,3.1
	l3.1,1.4L924,13.2z M898.3,23.1l-3.1-1.4l-1.4,3.1l3.1,1.4L898.3,23.1z M916.1,31l-3.1-1.4l-1.4,3.1l3.1,1.4L916.1,31z M978.2,122.3
	l-0.1-0.1l-1.4,3.1l3.1,1.4l0.1-0.1l0.1,0.1l1.4-3.1l-3.1-1.4L978.2,122.3z M957,74l3.1,1.4l1.4-3.1l-3.1-1.4L957,74z M974.8,81.9
	l3.1,1.4l1.4-3.1l-3.1-1.4L974.8,81.9z M949.2,91.8l3.1,1.4l1.4-3.1l-3.1-1.4L949.2,91.8z M966.9,99.6l3.1,1.4l1.4-3.1l-3.1-1.4
	L966.9,99.6z M941.7,21l-3.1-1.4l-1.4,3.1l3.1,1.4L941.7,21z M959.5,28.9l-3.1-1.4l-1.4,3.1l3.1,1.4L959.5,28.9z M933.9,38.8
	l-3.1-1.4l-1.4,3.1l3.1,1.4L933.9,38.8z M947.1,48.4l3.1,1.4l1.4-3.1l-3.1-1.4L947.1,48.4z M992.6,89.7l3.1,1.4l1.4-3.1l-3.1-1.4
	L992.6,89.7z M984.7,107.5l3.1,1.4l1.4-3.1l-3.1-1.4L984.7,107.5z M977.3,36.7l-3.1-1.4l-1.4,3.1l3.1,1.4L977.3,36.7z M990.5,46.3
	l3.1,1.4l1.4-3.1l-3.1-1.4L990.5,46.3z M964.9,56.3l3.1,1.4l1.4-3.1l-3.1-1.4L964.9,56.3z M982.7,64.1l3.1,1.4l1.4-3.1L984,61
	L982.7,64.1z M949.6,3.3l-3.1-1.4L945.1,5l3.1,1.4L949.6,3.3z M967.4,11.1l-3.1-1.4l-1.4,3.1l3.1,1.4L967.4,11.1z M993,1.2L990.2,0
	h-0.5l-1.3,3l3.1,1.4L993,1.2z M985.1,19l-3.1-1.4l-1.4,3.1l3.1,1.4L985.1,19z M999.8,25.4l-1.4,3.1l1.6,0.7v-3.7L999.8,25.4z
	 M230.7,131.5l-1.4,3.1l0,0l0,0l3.1,1.4l1.4-3.1l0,0l0,0L230.7,131.5z M210.8,80.3l-1.4,3.1l0,0l0,0l3.1,1.4l1.4-3.1l0,0l0,0
	L210.8,80.3z M264.8,150.4l3.1,1.4l1.4-3.1l-3.1-1.4L264.8,150.4z M240.6,157.2L240.6,157.2l-1.4,3.1l0,0l0,0l3.1,1.4l1.4-3.1l0,0
	l0,0L240.6,157.2z M228.6,88.2l-1.4,3.1l0,0l0,0l3.1,1.4l1.4-3.1l0,0l0,0L228.6,88.2z M245,99.1l3.1,1.4l1.4-3.1l-3.1-1.4L245,99.1z
	 M225.2,47.9l3.1,1.4l1.4-3.1l-3.1-1.4L225.2,47.9z M200.9,54.7l-1.4,3.1l0,0l0,0l3.1,1.4l1.4-3.1l0,0l0,0L200.9,54.7z M218.7,62.5
	l-1.4,3.1l0,0l0,0l3.1,1.4l1.4-3.1l0,0l0,0L218.7,62.5z M282.6,158.2l3.1,1.4l1.4-3.1l-3.1-1.4L282.6,158.2z M300.3,166.1l3.1,1.4
	l1.4-3.1l-3.1-1.4L300.3,166.1z M276.1,172.9L276.1,172.9l-1.4,3.1l3.1,1.4l0,0l1.4-3.1L276.1,172.9L276.1,172.9z M262.8,107
	l3.1,1.4l1.4-3.1l-3.1-1.4L262.8,107z M280.5,114.8l3.1,1.4l1.4-3.1l-3.1-1.4L280.5,114.8z M254.9,124.8l3.1,1.4l1.4-3.1l-3.1-1.4
	L254.9,124.8z M272.7,132.6l3.1,1.4l1.4-3.1l-3.1-1.4L272.7,132.6z M242.9,55.8l3.1,1.4l1.4-3.1l-3.1-1.4L242.9,55.8z M260.7,63.6
	l3.1,1.4l1.4-3.1l-3.1-1.4L260.7,63.6z M235.1,73.5l3.1,1.4l1.4-3.1l-3.1-1.4L235.1,73.5z M252.8,81.4l3.1,1.4l1.4-3.1l-3.1-1.4
	L252.8,81.4z M227.6,2.8l-3.1-1.4l-1.4,3.1l3.1,1.4L227.6,2.8z M245.4,10.6l-3.1-1.4l-1.4,3.1l3.1,1.4L245.4,10.6z M219.8,20.5
	l-3.1-1.4l-1.4,3.1l3.1,1.4L219.8,20.5z M237.5,28.4l-3.1-1.4l-1.4,3.1l3.1,1.4L237.5,28.4z M318.1,173.9l3.1,1.4l1.4-3.1l-3.1-1.4
	L318.1,173.9z M335.9,181.8l3.1,1.4l1.4-3.1l-3.1-1.4L335.9,181.8z M311.6,188.6l-0.9,2.1l-0.5,1v0v0l3.1,1.4h0l1.4-3.1l-1.8-0.8
	L311.6,188.6z M298.3,122.7l3.1,1.4l1.4-3.1l-3.1-1.4L298.3,122.7z M316.1,130.5l3.1,1.4l1.4-3.1l-3.1-1.4L316.1,130.5z
	 M290.4,140.5l3.1,1.4l1.4-3.1l-3.1-1.4L290.4,140.5z M308.2,148.3l3.1,1.4l1.4-3.1l-3.1-1.4L308.2,148.3z M278.5,71.5l3.1,1.4
	l1.4-3.1l-3.1-1.4L278.5,71.5z M296.2,79.3l3.1,1.4l1.4-3.1l-3.1-1.4L296.2,79.3z M270.6,89.2l3.1,1.4l1.4-3.1l-3.1-1.4L270.6,89.2z
	 M288.4,97.1l3.1,1.4l1.4-3.1l-3.1-1.4L288.4,97.1z M263.2,18.5l-3.1-1.4l-1.4,3.1l3.1,1.4L263.2,18.5z M280.9,26.3l-3.1-1.4
	l-1.4,3.1l3.1,1.4L280.9,26.3z M255.3,36.2l-3.1-1.4l-1.4,3.1l3.1,1.4L255.3,36.2z M268.6,45.8l3.1,1.4l1.4-3.1l-3.1-1.4L268.6,45.8
	z M353.7,189.6l3.1,1.4l1.4-3.1l-3.1-1.4L353.7,189.6z M371.4,197.5l3.1,1.4l1.4-3.1l-3.1-1.4L371.4,197.5z M347.2,204.3
	L347.2,204.3l-1.4,3.1l3.1,1.4l0,0v0l1.4-3.1L347.2,204.3L347.2,204.3z M364.9,212.1L364.9,212.1L364.9,212.1l-1.4,3.1l1.6,0.7
	l1.6,0.7l1.4-3.1v0l-2.1-0.9L364.9,212.1z M333.8,138.4l3.1,1.4l1.4-3.1l-3.1-1.4L333.8,138.4z M351.6,146.2l3.1,1.4l1.4-3.1
	l-3.1-1.4L351.6,146.2z M326,156.2l3.1,1.4l1.4-3.1l-3.1-1.4L326,156.2z M343.7,164l3.1,1.4l1.4-3.1l-3.1-1.4L343.7,164z M314,87.2
	l3.1,1.4l1.4-3.1l-3.1-1.4L314,87.2z M331.8,95l3.1,1.4l1.4-3.1l-3.1-1.4L331.8,95z M306.2,104.9l3.1,1.4l1.4-3.1l-3.1-1.4
	L306.2,104.9z M323.9,112.8l3.1,1.4l1.4-3.1l-3.1-1.4L323.9,112.8z M298.7,34.2l-3.1-1.4l-1.4,3.1l3.1,1.4L298.7,34.2z M312,43.8
	l3.1,1.4l1.4-3.1l-3.1-1.4L312,43.8z M286.3,53.7l3.1,1.4l1.4-3.1l-3.1-1.4L286.3,53.7z M304.1,61.5l3.1,1.4l1.4-3.1l-3.1-1.4
	L304.1,61.5z M271,0.7L269.4,0h-1.8l-1.1,2.5l3.1,1.4L271,0.7z M288.8,8.6l-3.1-1.4l-1.4,3.1l3.1,1.4L288.8,8.6z M389.2,205.3
	l3.1,1.4l1.4-3.1l-3.1-1.4L389.2,205.3z M406.9,213.2l3.1,1.4l1.4-3.1l-3.1-1.4L406.9,213.2z M382.7,220L382.7,220l-0.9,2.1l-0.5,1
	h0l3.1,1.4l0,0l1.4-3.1L382.7,220L382.7,220z M369.4,154.1l3.1,1.4l1.4-3.1l-3.1-1.4L369.4,154.1z M387.1,162l3.1,1.4l1.4-3.1
	l-3.1-1.4L387.1,162z M361.5,171.9l3.1,1.4l1.4-3.1l-3.1-1.4L361.5,171.9z M379.3,179.7l3.1,1.4l1.4-3.1l-3.1-1.4L379.3,179.7z
	 M349.6,102.9l3.1,1.4l1.4-3.1l-3.1-1.4L349.6,102.9z M367.3,110.7l3.1,1.4l1.4-3.1l-3.1-1.4L367.3,110.7z M341.7,120.6l3.1,1.4
	l1.4-3.1l-3.1-1.4L341.7,120.6z M359.5,128.5l3.1,1.4l1.4-3.1l-3.1-1.4L359.5,128.5z M329.7,51.6l3.1,1.4l1.4-3.1l-3.1-1.4
	L329.7,51.6z M347.5,59.5l3.1,1.4l1.4-3.1l-3.1-1.4L347.5,59.5z M321.9,69.4l3.1,1.4l1.4-3.1l-3.1-1.4L321.9,69.4z M339.6,77.3
	l3.1,1.4l1.4-3.1l-3.1-1.4L339.6,77.3z M313.8,0h-3.7l-0.2,0.4l3.1,1.4L313.8,0z M332.2,6.5l-3.1-1.4l-1.4,3.1l3.1,1.4L332.2,6.5z
	 M306.6,16.4l-3.1-1.4l-1.4,3.1l3.1,1.4L306.6,16.4z M324.3,24.3l-3.1-1.4l-1.4,3.1l3.1,1.4L324.3,24.3z M424.7,221l3.1,1.4l1.4-3.1
	l-3.1-1.4L424.7,221z M442.5,228.9l3.1,1.4l1.4-3.1l-3.1-1.4L442.5,228.9z M404.9,169.8l3.1,1.4l1.4-3.1l-3.1-1.4L404.9,169.8z
	 M422.7,177.7l3.1,1.4l1.4-3.1l-3.1-1.4L422.7,177.7z M397,187.6l3.1,1.4l1.4-3.1l-3.1-1.4L397,187.6z M414.8,195.4l3.1,1.4l1.4-3.1
	l-3.1-1.4L414.8,195.4z M385.1,118.6l3.1,1.4l1.4-3.1l-3.1-1.4L385.1,118.6z M402.8,126.4l3.1,1.4l1.4-3.1l-3.1-1.4L402.8,126.4z
	 M377.2,136.3l3.1,1.4l1.4-3.1l-3.1-1.4L377.2,136.3z M395,144.2l3.1,1.4l1.4-3.1l-3.1-1.4L395,144.2z M365.3,67.3l3.1,1.4l1.4-3.1
	l-3.1-1.4L365.3,67.3z M383,75.2l3.1,1.4l1.4-3.1l-3.1-1.4L383,75.2z M357.4,85.1l3.1,1.4l1.4-3.1l-3.1-1.4L357.4,85.1z M375.2,93
	l3.1,1.4l1.4-3.1l-3.1-1.4L375.2,93z M349.9,14.4l-3.1-1.4l-1.4,3.1l3.1,1.4L349.9,14.4z M367.7,22.2l-3.1-1.4l-1.4,3.1l3.1,1.4
	L367.7,22.2z M342.1,32.1l-3.1-1.4l-1.4,3.1l3.1,1.4L342.1,32.1z M359.9,40l-3.1-1.4l-1.4,3.1l3.1,1.4L359.9,40z M460.2,236.8
	l3.1,1.4l1.4-3.1l-3.1-1.4L460.2,236.8z M478,244.6l3.1,1.4l1.4-3.1l-3.1-1.4L478,244.6z M453.8,251.4L453.8,251.4l-1.4,3.1l3.1,1.4
	l0,0l0,0l1.4-3.1L453.8,251.4L453.8,251.4z M440.4,185.5l3.1,1.4l1.4-3.1l-3.1-1.4L440.4,185.5z M458.2,193.4l3.1,1.4l1.4-3.1
	l-3.1-1.4L458.2,193.4z M432.6,203.3l3.1,1.4l1.4-3.1l-3.1-1.4L432.6,203.3z M450.3,211.1l3.1,1.4l1.4-3.1l-3.1-1.4L450.3,211.1z
	 M420.6,134.3l3.1,1.4l1.4-3.1l-3.1-1.4L420.6,134.3z M438.4,142.1l3.1,1.4l1.4-3.1l-3.1-1.4L438.4,142.1z M412.8,152l3.1,1.4
	l1.4-3.1l-3.1-1.4L412.8,152z M430.5,159.9l3.1,1.4l1.4-3.1l-3.1-1.4L430.5,159.9z M400.8,83l3.1,1.4l1.4-3.1l-3.1-1.4L400.8,83z
	 M418.5,90.9l3.1,1.4l1.4-3.1l-3.1-1.4L418.5,90.9z M392.9,100.8l3.1,1.4l1.4-3.1l-3.1-1.4L392.9,100.8z M410.7,108.7l3.1,1.4
	l1.4-3.1l-3.1-1.4L410.7,108.7z M385.5,30.1l-3.1-1.4l-1.4,3.1l3.1,1.4L385.5,30.1z M403.2,37.9l-3.1-1.4l-1.4,3.1l3.1,1.4
	L403.2,37.9z M373.1,49.6l3.1,1.4l1.4-3.1l-3.1-1.4L373.1,49.6z M390.9,57.4l3.1,1.4l1.4-3.1l-3.1-1.4L390.9,57.4z M375.6,4.4
	l-3.1-1.4l-1.4,3.1l3.1,1.4L375.6,4.4z M495.8,252.5l3.1,1.4l1.4-3.1l-3.1-1.4L495.8,252.5z M513.5,260.3l3.1,1.4l1.4-3.1l-3.1-1.4
	L513.5,260.3z M489.3,267.1L489.3,267.1l-1.4,3.1l3.1,1.4l0,0l0,0l1.4-3.1L489.3,267.1L489.3,267.1z M476,201.2l3.1,1.4l1.4-3.1
	l-3.1-1.4L476,201.2z M493.7,209.1l3.1,1.4l1.4-3.1l-3.1-1.4L493.7,209.1z M468.1,219l3.1,1.4l1.4-3.1l-3.1-1.4L468.1,219z
	 M485.9,226.8l3.1,1.4l1.4-3.1l-3.1-1.4L485.9,226.8z M456.1,150l3.1,1.4l1.4-3.1l-3.1-1.4L456.1,150z M473.9,157.8l3.1,1.4l1.4-3.1
	l-3.1-1.4L473.9,157.8z M448.3,167.7l3.1,1.4l1.4-3.1l-3.1-1.4L448.3,167.7z M466.1,175.6l3.1,1.4l1.4-3.1l-3.1-1.4L466.1,175.6z
	 M436.3,98.7l3.1,1.4l1.4-3.1l-3.1-1.4L436.3,98.7z M454.1,106.6l3.1,1.4l1.4-3.1l-3.1-1.4L454.1,106.6z M428.5,116.5l3.1,1.4
	l1.4-3.1l-3.1-1.4L428.5,116.5z M446.2,124.4l3.1,1.4l1.4-3.1l-3.1-1.4L446.2,124.4z M416.5,47.5l3.1,1.4l1.4-3.1l-3.1-1.4
	L416.5,47.5z M434.3,55.4l3.1,1.4l1.4-3.1l-3.1-1.4L434.3,55.4z M408.7,65.3l3.1,1.4l1.4-3.1l-3.1-1.4L408.7,65.3z M426.4,73.1
	l3.1,1.4l1.4-3.1l-3.1-1.4L426.4,73.1z M419,2.4L415.8,1l-1.4,3.1l3.1,1.4L419,2.4z M393.3,12.3l-3.1-1.4l-1.4,3.1l3.1,1.4
	L393.3,12.3z M411.1,20.1l-3.1-1.4l-1.4,3.1l3.1,1.4L411.1,20.1z M531.3,268.2l3.1,1.4l1.4-3.1l-3.1-1.4L531.3,268.2z M549.1,276
	l3.1,1.4l1.4-3.1l-3.1-1.4L549.1,276z M524.9,282.8L524.9,282.8l-1.4,3.1l3.1,1.4l0,0l0,0l1.4-3.1L524.9,282.8L524.9,282.8z
	 M542.6,290.6L542.6,290.6L542.6,290.6L542.6,290.6l-1.5,3.2l3.1,1.4l0,0l0,0l0,0l0,0l1.4-3.1L542.6,290.6L542.6,290.6z
	 M511.5,216.9l3.1,1.4l1.4-3.1l-3.1-1.4L511.5,216.9z M529.3,224.8l3.1,1.4l1.4-3.1l-3.1-1.4L529.3,224.8z M503.6,234.7l3.1,1.4
	l1.4-3.1l-3.1-1.4L503.6,234.7z M521.4,242.5l3.1,1.4l1.4-3.1l-3.1-1.4L521.4,242.5z M491.7,165.7l3.1,1.4l1.4-3.1l-3.1-1.4
	L491.7,165.7z M509.4,173.5l3.1,1.4l1.4-3.1l-3.1-1.4L509.4,173.5z M483.8,183.5l3.1,1.4l1.4-3.1l-3.1-1.4L483.8,183.5z
	 M501.6,191.3l3.1,1.4l1.4-3.1l-3.1-1.4L501.6,191.3z M471.9,114.5l3.1,1.4l1.4-3.1l-3.1-1.4L471.9,114.5z M489.6,122.3l3.1,1.4
	l1.4-3.1l-3.1-1.4L489.6,122.3z M464,132.2l3.1,1.4l1.4-3.1l-3.1-1.4L464,132.2z M481.8,140.1l3.1,1.4l1.4-3.1l-3.1-1.4L481.8,140.1
	z M452,63.2l3.1,1.4l1.4-3.1l-3.1-1.4L452,63.2z M469.8,71.1l3.1,1.4l1.4-3.1l-3.1-1.4L469.8,71.1z M444.2,81l3.1,1.4l1.4-3.1
	l-3.1-1.4L444.2,81z M462,88.8l3.1,1.4l1.4-3.1l-3.1-1.4L462,88.8z M436.7,10.2l-3.1-1.4l-1.4,3.1l3.1,1.4L436.7,10.2z M454.5,18.1
	l-3.1-1.4l-1.4,3.1l3.1,1.4L454.5,18.1z M428.9,28l-3.1-1.4l-1.4,3.1l3.1,1.4L428.9,28z M446.6,35.9l-3.1-1.4l-1.4,3.1l3.1,1.4
	L446.6,35.9z M568.2,280.8L568.2,280.8l-1.4,3.1l3.1,1.4l0,0l0,0l1.4-3.1L568.2,280.8L568.2,280.8z M560.4,298.5L560.4,298.5
	L560.4,298.5L560.4,298.5l-1.5,3.2l3.1,1.4l0,0l0,0l0,0l0,0l1.4-3.1L560.4,298.5L560.4,298.5z M547,232.6l3.1,1.4l1.4-3.1l-3.1-1.4
	L547,232.6z M564.8,240.5l3.1,1.4l1.4-3.1l-3.1-1.4L564.8,240.5z M539.2,250.4l3.1,1.4l1.4-3.1l-3.1-1.4L539.2,250.4z M556.9,258.2
	l3.1,1.4l1.4-3.1l-3.1-1.4L556.9,258.2z M527.2,181.4l3.1,1.4l1.4-3.1l-3.1-1.4L527.2,181.4z M545,189.2l3.1,1.4l1.4-3.1l-3.1-1.4
	L545,189.2z M519.4,199.2l3.1,1.4l1.4-3.1l-3.1-1.4L519.4,199.2z M537.1,207l3.1,1.4l1.4-3.1l-3.1-1.4L537.1,207z M507.4,130.2
	l3.1,1.4l1.4-3.1l-3.1-1.4L507.4,130.2z M525.2,138l3.1,1.4l1.4-3.1l-3.1-1.4L525.2,138z M499.5,147.9l3.1,1.4l1.4-3.1l-3.1-1.4
	L499.5,147.9z M517.3,155.8l3.1,1.4l1.4-3.1l-3.1-1.4L517.3,155.8z M487.6,78.9l3.1,1.4l1.4-3.1l-3.1-1.4L487.6,78.9z M505.3,86.8
	l3.1,1.4l1.4-3.1l-3.1-1.4L505.3,86.8z M479.7,96.7l3.1,1.4l1.4-3.1l-3.1-1.4L479.7,96.7z M497.5,104.5l3.1,1.4l1.4-3.1l-3.1-1.4
	L497.5,104.5z M472.3,25.9l-3.1-1.4l-1.4,3.1l3.1,1.4L472.3,25.9z M490,33.8l-3.1-1.4l-1.4,3.1l3.1,1.4L490,33.8z M459.9,45.5
	l3.1,1.4l1.4-3.1l-3.1-1.4L459.9,45.5z M477.7,53.3l3.1,1.4l1.4-3.1l-3.1-1.4L477.7,53.3z M462.4,0.3L461.6,0h-2.9l-0.9,2.1l3.1,1.4
	L462.4,0.3z M582.6,248.3l3.1,1.4l1.4-3.1l-3.1-1.4L582.6,248.3z M600.3,256.2l3.1,1.4l1.4-3.1l-3.1-1.4L600.3,256.2z M574.7,266.1
	l3.1,1.4l1.4-3.1l-3.1-1.4L574.7,266.1z M593.8,270.9L593.8,270.9l-1.4,3.1l3.1,1.4l0-0.1l0,0l1.4-3.1L593.8,270.9L593.8,270.9z
	 M562.7,197.1l3.1,1.4l1.4-3.1l-3.1-1.4L562.7,197.1z M580.5,205l3.1,1.4l1.4-3.1l-3.1-1.4L580.5,205z M554.9,214.9l3.1,1.4l1.4-3.1
	l-3.1-1.4L554.9,214.9z M572.7,222.7l3.1,1.4l1.4-3.1l-3.1-1.4L572.7,222.7z M542.9,145.9l3.1,1.4l1.4-3.1l-3.1-1.4L542.9,145.9z
	 M560.7,153.7l3.1,1.4l1.4-3.1l-3.1-1.4L560.7,153.7z M535.1,163.6l3.1,1.4l1.4-3.1l-3.1-1.4L535.1,163.6z M552.8,171.5l3.1,1.4
	l1.4-3.1l-3.1-1.4L552.8,171.5z M523.1,94.6l3.1,1.4l1.4-3.1l-3.1-1.4L523.1,94.6z M540.9,102.5l3.1,1.4l1.4-3.1l-3.1-1.4
	L540.9,102.5z M515.3,112.4l3.1,1.4l1.4-3.1l-3.1-1.4L515.3,112.4z M533,120.2l3.1,1.4l1.4-3.1l-3.1-1.4L533,120.2z M503.3,43.4
	l3.1,1.4l1.4-3.1l-3.1-1.4L503.3,43.4z M521.1,51.2l3.1,1.4l1.4-3.1l-3.1-1.4L521.1,51.2z M495.4,61.2l3.1,1.4l1.4-3.1l-3.1-1.4
	L495.4,61.2z M513.2,69l3.1,1.4l1.4-3.1l-3.1-1.4L513.2,69z M505,0h-3.7l0,0l3.1,1.4L505,0z M480.1,8.2L477,6.8l-1.4,3.1l3.1,1.4
	L480.1,8.2z M497.9,16l-3.1-1.4l-1.4,3.1l3.1,1.4L497.9,16z M619.5,261L619.5,261l-1.4,3.1l3.1,1.4l0-0.1l0.1,0l1.4-3.1L619.5,261
	L619.5,261z M598.3,212.8l3.1,1.4l1.4-3.1l-3.1-1.4L598.3,212.8z M616,220.7l3.1,1.4l1.4-3.1l-3.1-1.4L616,220.7z M590.4,230.6
	l3.1,1.4l1.4-3.1l-3.1-1.4L590.4,230.6z M608.2,238.4l3.1,1.4l1.4-3.1l-3.1-1.4L608.2,238.4z M578.5,161.6l3.1,1.4l1.4-3.1l-3.1-1.4
	L578.5,161.6z M596.2,169.4l3.1,1.4l1.4-3.1l-3.1-1.4L596.2,169.4z M570.6,179.3l3.1,1.4l1.4-3.1l-3.1-1.4L570.6,179.3z
	 M588.4,187.2l3.1,1.4l1.4-3.1l-3.1-1.4L588.4,187.2z M558.7,110.3l3.1,1.4l1.4-3.1l-3.1-1.4L558.7,110.3z M576.4,118.2l3.1,1.4
	l1.4-3.1l-3.1-1.4L576.4,118.2z M550.8,128.1l3.1,1.4l1.4-3.1l-3.1-1.4L550.8,128.1z M568.6,135.9l3.1,1.4l1.4-3.1l-3.1-1.4
	L568.6,135.9z M538.8,59.1l3.1,1.4l1.4-3.1l-3.1-1.4L538.8,59.1z M556.6,66.9l3.1,1.4l1.4-3.1l-3.1-1.4L556.6,66.9z M531,76.9
	l3.1,1.4l1.4-3.1l-3.1-1.4L531,76.9z M548.7,84.7l3.1,1.4l1.4-3.1l-3.1-1.4L548.7,84.7z M523.5,6.1l-3.1-1.4L519,7.9l3.1,1.4
	L523.5,6.1z M541.3,14l-3.1-1.4l-1.4,3.1l3.1,1.4L541.3,14z M515.7,23.9l-3.1-1.4l-1.4,3.1l3.1,1.4L515.7,23.9z M533.4,31.7
	l-3.1-1.4l-1.4,3.1l3.1,1.4L533.4,31.7z M633.8,228.5l3.1,1.4l1.4-3.1l-3.1-1.4L633.8,228.5z M651.6,236.4l3.1,1.4l1.4-3.1l-3.1-1.4
	L651.6,236.4z M626,246.3l3.1,1.4l1.4-3.1l-3.1-1.4L626,246.3z M645.1,251.1L645.1,251.1l-1.5,3.1l3.1,1.4l0-0.1l0.1,0l1.4-3.1
	L645.1,251.1L645.1,251.1z M614,177.3l3.1,1.4l1.4-3.1l-3.1-1.4L614,177.3z M631.8,185.1l3.1,1.4l1.4-3.1l-3.1-1.4L631.8,185.1z
	 M606.2,195l3.1,1.4l1.4-3.1l-3.1-1.4L606.2,195z M623.9,202.9l3.1,1.4l1.4-3.1l-3.1-1.4L623.9,202.9z M594.2,126l3.1,1.4l1.4-3.1
	l-3.1-1.4L594.2,126z M611.9,133.9l3.1,1.4l1.4-3.1l-3.1-1.4L611.9,133.9z M586.3,143.8l3.1,1.4l1.4-3.1l-3.1-1.4L586.3,143.8z
	 M604.1,151.7l3.1,1.4l1.4-3.1l-3.1-1.4L604.1,151.7z M574.4,74.8l3.1,1.4l1.4-3.1l-3.1-1.4L574.4,74.8z M592.1,82.7l3.1,1.4
	l1.4-3.1l-3.1-1.4L592.1,82.7z M566.5,92.6l3.1,1.4l1.4-3.1l-3.1-1.4L566.5,92.6z M584.3,100.4l3.1,1.4l1.4-3.1l-3.1-1.4
	L584.3,100.4z M559.1,21.8l-3.1-1.4l-1.4,3.1l3.1,1.4L559.1,21.8z M576.8,29.7l-3.1-1.4l-1.4,3.1l3.1,1.4L576.8,29.7z M551.2,39.6
	l-3.1-1.4l-1.4,3.1l3.1,1.4L551.2,39.6z M564.5,49.2l3.1,1.4l1.4-3.1l-3.1-1.4L564.5,49.2z M670.7,241.1L670.7,241.1l-1.4,3.1
	l3.1,1.4l0-0.1l0.1,0l1.4-3.1L670.7,241.1L670.7,241.1z M688.5,249L688.5,249l-1.4,3.1l3.1,1.4l0-0.1l0.1,0l1.4-3.1L688.5,249
	L688.5,249z M649.5,193l3.1,1.4l1.4-3.1l-3.1-1.4L649.5,193z M667.3,200.8l3.1,1.4l1.4-3.1l-3.1-1.4L667.3,200.8z M641.7,210.7
	l3.1,1.4l1.4-3.1l-3.1-1.4L641.7,210.7z M659.4,218.6l3.1,1.4l1.4-3.1l-3.1-1.4L659.4,218.6z M629.7,141.7l3.1,1.4l1.4-3.1l-3.1-1.4
	L629.7,141.7z M647.5,149.6l3.1,1.4l1.4-3.1l-3.1-1.4L647.5,149.6z M621.8,159.5l3.1,1.4l1.4-3.1l-3.1-1.4L621.8,159.5z
	 M639.6,167.4l3.1,1.4l1.4-3.1l-3.1-1.4L639.6,167.4z M609.9,90.5l3.1,1.4l1.4-3.1l-3.1-1.4L609.9,90.5z M627.6,98.4l3.1,1.4
	l1.4-3.1l-3.1-1.4L627.6,98.4z M602,108.3l3.1,1.4l1.4-3.1l-3.1-1.4L602,108.3z M619.8,116.1l3.1,1.4l1.4-3.1l-3.1-1.4L619.8,116.1z
	 M594.6,37.5l-3.1-1.4l-1.4,3.1l3.1,1.4L594.6,37.5z M607.8,47.1l3.1,1.4l1.4-3.1l-3.1-1.4L607.8,47.1z M582.2,57l3.1,1.4l1.4-3.1
	l-3.1-1.4L582.2,57z M600,64.9l3.1,1.4l1.4-3.1l-3.1-1.4L600,64.9z M566.9,4.1l-3.1-1.4l-1.4,3.1l3.1,1.4L566.9,4.1z M584.7,11.9
	l-3.1-1.4l-1.4,3.1l3.1,1.4L584.7,11.9z M685.1,208.7l3.1,1.4l1.4-3.1l-3.1-1.4L685.1,208.7z M702.8,216.5l3.1,1.4l1.4-3.1l-3.1-1.4
	L702.8,216.5z M677.2,226.4l3.1,1.4l1.4-3.1l-3.1-1.4L677.2,226.4z M696.3,231.2L696.3,231.2l-1.5,3.1l3.1,1.4l0-0.1l0.1,0l1.4-3.1
	L696.3,231.2L696.3,231.2z M665.2,157.4l3.1,1.4l1.4-3.1l-3.1-1.4L665.2,157.4z M683,165.3l3.1,1.4l1.4-3.1l-3.1-1.4L683,165.3z
	 M657.4,175.2l3.1,1.4l1.4-3.1l-3.1-1.4L657.4,175.2z M675.1,183.1l3.1,1.4l1.4-3.1l-3.1-1.4L675.1,183.1z M645.4,106.2l3.1,1.4
	l1.4-3.1l-3.1-1.4L645.4,106.2z M663.2,114.1l3.1,1.4l1.4-3.1l-3.1-1.4L663.2,114.1z M637.6,124l3.1,1.4l1.4-3.1l-3.1-1.4L637.6,124
	z M655.3,131.8l3.1,1.4l1.4-3.1l-3.1-1.4L655.3,131.8z M625.6,55l3.1,1.4l1.4-3.1l-3.1-1.4L625.6,55z M643.4,62.8l3.1,1.4l1.4-3.1
	l-3.1-1.4L643.4,62.8z M617.7,72.7l3.1,1.4l1.4-3.1l-3.1-1.4L617.7,72.7z M635.5,80.6l3.1,1.4l1.4-3.1l-3.1-1.4L635.5,80.6z
	 M610.3,2l-3.1-1.4l-1.4,3.1l3.1,1.4L610.3,2z M628.1,9.9l-3.1-1.4l-1.4,3.1l3.1,1.4L628.1,9.9z M602.4,19.8l-3.1-1.4l-1.4,3.1
	l3.1,1.4L602.4,19.8z M620.2,27.6l-3.1-1.4l-1.4,3.1l3.1,1.4L620.2,27.6z M721.9,221.3L721.9,221.3l-1.5,3.1l3.1,1.4l0-0.1l0.1,0
	l1.4-3.1L721.9,221.3L721.9,221.3z M739.7,229.2L739.7,229.2l-1.5,3.1l3.1,1.4l0-0.1l0.1,0l1.4-3.1L739.7,229.2L739.7,229.2z
	 M714.1,239.1L714.1,239.1l-1.5,3.1l3.1,1.4l0-0.1l0.1,0l1.4-3.1L714.1,239.1L714.1,239.1z M700.8,173.1l3.1,1.4l1.4-3.1l-3.1-1.4
	L700.8,173.1z M718.5,181l3.1,1.4l1.4-3.1l-3.1-1.4L718.5,181z M692.9,190.9l3.1,1.4l1.4-3.1l-3.1-1.4L692.9,190.9z M710.7,198.8
	l3.1,1.4l1.4-3.1l-3.1-1.4L710.7,198.8z M681,121.9l3.1,1.4l1.4-3.1l-3.1-1.4L681,121.9z M698.7,129.8l3.1,1.4l1.4-3.1l-3.1-1.4
	L698.7,129.8z M673.1,139.7l3.1,1.4l1.4-3.1l-3.1-1.4L673.1,139.7z M690.9,147.5l3.1,1.4l1.4-3.1l-3.1-1.4L690.9,147.5z M661.1,70.7
	l3.1,1.4l1.4-3.1l-3.1-1.4L661.1,70.7z M678.9,78.5l3.1,1.4l1.4-3.1l-3.1-1.4L678.9,78.5z M653.3,88.4l3.1,1.4l1.4-3.1l-3.1-1.4
	L653.3,88.4z M671.1,96.3l3.1,1.4l1.4-3.1l-3.1-1.4L671.1,96.3z M645.8,17.7l-3.1-1.4l-1.4,3.1l3.1,1.4L645.8,17.7z M663.6,25.5
	l-3.1-1.4l-1.4,3.1l3.1,1.4L663.6,25.5z M638,35.5l-3.1-1.4l-1.4,3.1l3.1,1.4L638,35.5z M651.2,45.1l3.1,1.4l1.4-3.1l-3.1-1.4
	L651.2,45.1z M736.3,188.9l3.1,1.4l1.4-3.1l-3.1-1.4L736.3,188.9z M754.1,196.7l3.1,1.4l1.4-3.1l-3.1-1.4L754.1,196.7z M728.5,206.6
	l3.1,1.4l1.4-3.1l-3.1-1.4L728.5,206.6z M747.6,211.4L747.6,211.4l-1.5,3.1l3.1,1.4l0-0.1l0.1,0l1.4-3.1L747.6,211.4L747.6,211.4z
	 M716.5,137.6l3.1,1.4l1.4-3.1l-3.1-1.4L716.5,137.6z M734.3,145.5l3.1,1.4l1.4-3.1l-3.1-1.4L734.3,145.5z M708.6,155.4l3.1,1.4
	l1.4-3.1l-3.1-1.4L708.6,155.4z M726.4,163.2l3.1,1.4l1.4-3.1l-3.1-1.4L726.4,163.2z M696.7,86.4l3.1,1.4l1.4-3.1l-3.1-1.4
	L696.7,86.4z M714.4,94.2l3.1,1.4l1.4-3.1l-3.1-1.4L714.4,94.2z M688.8,104.1l3.1,1.4l1.4-3.1l-3.1-1.4L688.8,104.1z M706.6,112
	l3.1,1.4l1.4-3.1l-3.1-1.4L706.6,112z M681.4,33.4l-3.1-1.4l-1.4,3.1l3.1,1.4L681.4,33.4z M694.6,43l3.1,1.4l1.4-3.1l-3.1-1.4
	L694.6,43z M669,52.9l3.1,1.4l1.4-3.1l-3.1-1.4L669,52.9z M686.8,60.8l3.1,1.4l1.4-3.1l-3.1-1.4L686.8,60.8z M653.7,0h-3.7l-0.7,1.7
	l3.1,1.4L653.7,0z M671.5,7.8l-3.1-1.4L667,9.5l3.1,1.4L671.5,7.8z M773.2,201.5L773.2,201.5l-1.5,3.1l3.1,1.4l0-0.1l0.1,0l1.4-3.1
	L773.2,201.5L773.2,201.5z M791,209.4L791,209.4l-1.5,3.1l3.1,1.4l0-0.1l0.1,0l1.4-3.1L791,209.4L791,209.4z M765.3,219.3
	L765.3,219.3l-1.5,3.1l3.1,1.4l0-0.1l0.1,0l1.4-3.1L765.3,219.3L765.3,219.3z M752,153.3l3.1,1.4l1.4-3.1l-3.1-1.4L752,153.3z
	 M769.8,161.2l3.1,1.4l1.4-3.1l-3.1-1.4L769.8,161.2z M744.2,171.1l3.1,1.4l1.4-3.1l-3.1-1.4L744.2,171.1z M761.9,178.9l3.1,1.4
	l1.4-3.1l-3.1-1.4L761.9,178.9z M732.2,102.1l3.1,1.4l1.4-3.1l-3.1-1.4L732.2,102.1z M750,109.9l3.1,1.4l1.4-3.1l-3.1-1.4L750,109.9
	z M724.4,119.9l3.1,1.4l1.4-3.1l-3.1-1.4L724.4,119.9z M742.1,127.7l3.1,1.4l1.4-3.1l-3.1-1.4L742.1,127.7z M712.4,50.9l3.1,1.4
	l1.4-3.1l-3.1-1.4L712.4,50.9z M730.2,58.7l3.1,1.4l1.4-3.1l-3.1-1.4L730.2,58.7z M704.5,68.6l3.1,1.4l1.4-3.1l-3.1-1.4L704.5,68.6z
	 M722.3,76.5l3.1,1.4l1.4-3.1l-3.1-1.4L722.3,76.5z M696.1,0h-2.7l2.3,1L696.1,0z M714.8,5.7l-3.1-1.4l-1.4,3.1l3.1,1.4L714.8,5.7z
	 M689.2,15.6l-3.1-1.4l-1.4,3.1l3.1,1.4L689.2,15.6z M707,23.5l-3.1-1.4l-1.4,3.1l3.1,1.4L707,23.5z M787.6,169l3.1,1.4l1.4-3.1
	l-3.1-1.4L787.6,169z M805.3,176.9l3.1,1.4l1.4-3.1l-3.1-1.4L805.3,176.9z M779.7,186.8l3.1,1.4l1.4-3.1l-3.1-1.4L779.7,186.8z
	 M798.8,191.6L798.8,191.6l-1.5,3.1l3.1,1.4l0-0.1l0.1,0l1.4-3.1L798.8,191.6L798.8,191.6z M767.7,117.8l3.1,1.4l1.4-3.1l-3.1-1.4
	L767.7,117.8z M785.5,125.6l3.1,1.4l1.4-3.1l-3.1-1.4L785.5,125.6z M759.9,135.6l3.1,1.4l1.4-3.1l-3.1-1.4L759.9,135.6z
	 M777.7,143.4l3.1,1.4l1.4-3.1l-3.1-1.4L777.7,143.4z M747.9,66.6l3.1,1.4l1.4-3.1l-3.1-1.4L747.9,66.6z M765.7,74.4l3.1,1.4
	l1.4-3.1l-3.1-1.4L765.7,74.4z M740.1,84.3l3.1,1.4l1.4-3.1l-3.1-1.4L740.1,84.3z M757.8,92.2l3.1,1.4l1.4-3.1l-3.1-1.4L757.8,92.2z
	 M732.6,13.6l-3.1-1.4l-1.4,3.1l3.1,1.4L732.6,13.6z M750.4,21.4l-3.1-1.4l-1.4,3.1l3.1,1.4L750.4,21.4z M724.8,31.3l-3.1-1.4
	l-1.4,3.1l3.1,1.4L724.8,31.3z M742.5,39.2l-3.1-1.4l-1.4,3.1l3.1,1.4L742.5,39.2z M824.4,181.7l-0.1,0l-1.4,3.1l3.1,1.4l0-0.1
	l0.1,0l1.4-3.1l-3.1-1.4L824.4,181.7z M842.2,189.6l-0.1,0l-1.4,3.1l3.1,1.4l0-0.1l0.1,0l1.4-3.1l-3.1-1.4L842.2,189.6z
	 M816.6,199.5l-0.1,0l-1.4,3.1l3.1,1.4l0-0.1l0.1,0l1.4-3.1l-3.1-1.4L816.6,199.5z M803.3,133.5l3.1,1.4l1.4-3.1l-3.1-1.4
	L803.3,133.5z M821,141.3l3.1,1.4l1.4-3.1l-3.1-1.4L821,141.3z M795.4,151.3l3.1,1.4l1.4-3.1l-3.1-1.4L795.4,151.3z M813.2,159.1
	l3.1,1.4l1.4-3.1l-3.1-1.4L813.2,159.1z M783.5,82.3l3.1,1.4l1.4-3.1l-3.1-1.4L783.5,82.3z M801.2,90.1l3.1,1.4l1.4-3.1l-3.1-1.4
	L801.2,90.1z M775.6,100l3.1,1.4l1.4-3.1l-3.1-1.4L775.6,100z M793.4,107.9l3.1,1.4l1.4-3.1l-3.1-1.4L793.4,107.9z M768.2,29.3
	l-3.1-1.4l-1.4,3.1l3.1,1.4L768.2,29.3z M785.9,37.1l-3.1-1.4l-1.4,3.1l3.1,1.4L785.9,37.1z M755.8,48.8l3.1,1.4l1.4-3.1l-3.1-1.4
	L755.8,48.8z M773.6,56.6l3.1,1.4l1.4-3.1l-3.1-1.4L773.6,56.6z M758.3,3.7l-3.1-1.4l-1.4,3.1l3.1,1.4L758.3,3.7z M838.8,149.2
	l3.1,1.4l1.4-3.1l-3.1-1.4L838.8,149.2z M856.6,157.1l3.1,1.4l1.4-3.1l-3.1-1.4L856.6,157.1z M831,167l3.1,1.4l1.4-3.1l-3.1-1.4
	L831,167z M850.1,171.8l-0.1,0l-1.4,3.1l3.1,1.4l0.1-0.1l0.1,0l1.4-3.1l-3.1-1.4L850.1,171.8z M819,98l3.1,1.4l1.4-3.1l-3.1-1.4
	L819,98z M836.8,105.8l3.1,1.4l1.4-3.1l-3.1-1.4L836.8,105.8z M811.1,115.7l3.1,1.4l1.4-3.1l-3.1-1.4L811.1,115.7z M828.9,123.6
	l3.1,1.4l1.4-3.1l-3.1-1.4L828.9,123.6z M799.2,46.7l3.1,1.4l1.4-3.1l-3.1-1.4L799.2,46.7z M816.9,54.6l3.1,1.4l1.4-3.1l-3.1-1.4
	L816.9,54.6z M791.3,64.5l3.1,1.4l1.4-3.1l-3.1-1.4L791.3,64.5z M809.1,72.3l3.1,1.4l1.4-3.1l-3.1-1.4L809.1,72.3z M801.6,1.6
	l-3.1-1.4l-1.4,3.1l3.1,1.4L801.6,1.6z M776,11.5l-3.1-1.4l-1.4,3.1l3.1,1.4L776,11.5z M793.8,19.4l-3.1-1.4l-1.4,3.1l3.1,1.4
	L793.8,19.4z" />
</svg>