<?xml version="1.0" encoding="utf-8"?>
<!-- Generator: Adobe Illustrator 24.0.1, SVG Export Plug-In . SVG Version: 6.00 Build 0)  -->
<svg version="1.2" baseProfile="tiny" id="Camada_1"
	 xmlns="http://www.w3.org/2000/svg" xmlns:xlink="http://www.w3.org/1999/xlink" x="0px" y="0px" viewBox="0 0 1000 400"
	 xml:space="preserve">
<path fill="#FFFFFF" d="M630.7,264.8h-5V151.3h5V264.8z M630.7,110.8h-5V141h5V110.8z M562.8,110.8h-5v154h5V110.8z M373.5,138.7
	c3.4-4,6.7-8,10.1-11.9c3.5-3.9,6.9-7.8,10.3-11.7l5.1-5.9l5.2-5.8l10.4-11.7c3.4-3.9,7-7.7,10.5-11.6c3.5-3.9,7-7.7,10.4-11.7
	c-3.8,3.5-7.7,7.1-11.4,10.7l-5.7,5.4c-1.9,1.8-3.8,3.6-5.6,5.5l-11,11.1l-5.5,5.6l-5.4,5.7c-2.4,2.5-4.8,5.1-7.2,7.7
	c-3.2-4.5-8.4-7.3-14-7.3h-42C324.5,100,313.6,92,299.2,92h-41.9c-14.4,0-25.3,8-28.7,20.9h-42c-5.2,0-10.1,2.4-13.3,6.4
	c-16.6-17.8-34-34.9-52.3-50.9l-0.3,0.4c9.3,10.6,18.8,20.7,28.2,31l7,7.7l3.5,3.8l3.5,3.9c4.7,5.1,9.4,10.2,14,15.5
	c4.7,5.1,9.3,10.3,13.9,15.5c4.7,5.1,9.2,10.4,13.9,15.6c9.2,10.4,18.4,20.9,28.1,31.1l0.4-0.3c-16.4-22.6-33.9-44.4-52.6-65.3
	c-1.7-1.9-3.5-3.8-5.2-5.7c2.6-3.5,6.8-5.6,11.2-5.6H231l0.3-1.2c2.7-12.2,12.7-19.7,26.1-19.7h41.9c13.4,0,23.3,7.6,26.1,19.7
	l0.3,1.2h44.4c4.8,0,9.3,2.5,11.9,6.5c-11.1,12-21.7,24.4-32.2,37l-9.8,12.2c-3.3,4.1-6.5,8.2-9.7,12.3l-4.7,6.2
	c-1.6,2.1-3.1,4.2-4.7,6.3c-3.1,4.2-6.2,8.4-9.2,12.7c-3,4.3-6,8.5-8.9,12.9l-4.3,6.5l-4.2,6.6c-5.6,8.8-11,17.8-15.8,27
	c5.8-8.7,11.7-17.2,17.9-25.7l4.6-6.3l4.7-6.3c3.1-4.2,6.2-8.3,9.4-12.5c3.1-4.2,6.4-8.2,9.5-12.4c1.6-2.1,3.2-4.1,4.8-6.2l4.9-6.1
	c6.4-8.2,13-16.2,19.6-24.3C360.1,154.6,366.7,146.6,373.5,138.7z M536.4,259.8h2.5v5h-2.5c-25.4,0-34.1-6.9-36.1-34.6
	c-8.7,20.3-28.8,34.6-52.3,34.6c-31.3,0-56.8-25.5-56.8-56.8s25.5-56.8,56.8-56.8c30.5,0,55.4,24.1,56.7,54.3h0.1v8.8
	C504.8,254.4,511.1,259.8,536.4,259.8z M499.8,208c0-28.5-23.2-51.8-51.8-51.8c-28.5,0-51.8,23.2-51.8,51.8s23.2,51.8,51.8,51.8
	C476.6,259.8,499.8,236.6,499.8,208z M876.7,264.8h5V208c0-31.3-25.5-56.8-56.8-56.8c-25.5,0-47.1,16.9-54.3,40.1
	c-7.1-23.2-28.8-40.1-54.3-40.1c-23,0-42.9,13.8-51.8,33.5v-31h-5v111h5V208c0-28.5,23.2-51.8,51.8-51.8s51.8,23.2,51.8,51.8v54.3h5
	V208c0-28.5,23.2-51.8,51.8-51.8s51.8,23.2,51.8,51.8V264.8z M591.7,264.8h5v-154h-5V264.8z M101,342.6h7.8v-20.1h10.4v-5.2h-10.4
	v-12.9h11.1v-5.2H101V342.6z M715.9,342.6h7.8v-20.1h10.4v-5.2h-10.4v-12.9h11.1v-5.2h-18.9V342.6z M565.9,333.7l2.8,8.9h-8.2
	l-2.3-7.5c-1.7-5.2-3.1-8.6-4.4-10c-1.2-1.4-2.8-2.1-4.6-1.9v19.4h-7.8v-43.4h6.5c5.2,0,9.2,1.1,11.9,3.3c2.7,2.2,4.1,5.1,4.1,8.7
	c0,4.1-2.1,7.2-6.3,9.3C560.9,322.1,563.6,326.5,565.9,333.7z M556.1,311.4c0-4.7-2.3-7-6.9-7V318h0.4
	C553.9,318,556.1,315.8,556.1,311.4z M799.9,342.6h7.8v-43.4h-7.8V342.6z M211.2,304.8c2.9,4.1,4.4,9.5,4.4,16.1
	c0,7-1.6,12.4-4.7,16.4s-7,5.9-11.6,5.9c-4.8,0-8.7-2-11.7-6c-3-4-4.5-9.4-4.5-16.3c0-6.5,1.4-11.9,4.3-16c2.9-4.2,6.8-6.2,12-6.2
	C204.3,298.6,208.3,300.7,211.2,304.8z M207.5,320.9c0-5.5-0.7-9.7-2.2-12.6c-1.5-3-3.5-4.4-6-4.4s-4.6,1.5-5.9,4.5
	c-1.4,3-2.1,7.2-2.1,12.5c0,5.5,0.7,9.7,2.1,12.7s3.4,4.4,6,4.4c2.5,0,4.5-1.5,5.9-4.5C206.7,330.5,207.5,326.3,207.5,320.9z
	 M899,342.6h-7.6l-2.2-9.6H878l-2.4,9.6h-7.6l11.5-43.7h8.1L899,342.6z M887.9,327.8l-4.3-18.2h-0.2l-4.3,18.2H887.9z M644,298.9
	l11.4,43.7h-7.6l-2.2-9.6h-11.3l-2.4,9.6h-7.6l11.5-43.7H644z M644.3,327.8l-4.3-18.2h-0.2l-4.3,18.2H644.3z M381.3,304.8
	c2.9,4.1,4.4,9.5,4.4,16.1c0,7-1.6,12.4-4.7,16.4s-7,5.9-11.6,5.9c-4.8,0-8.7-2-11.7-6c-3-4-4.5-9.4-4.5-16.3c0-6.5,1.4-11.9,4.3-16
	c2.9-4.2,6.8-6.2,12-6.2C374.4,298.6,378.4,300.7,381.3,304.8z M377.6,320.9c0-5.5-0.7-9.7-2.2-12.6c-1.5-3-3.5-4.4-6-4.4
	s-4.6,1.5-5.9,4.5c-1.4,3-2.1,7.2-2.1,12.5c0,5.5,0.7,9.7,2.1,12.7s3.4,4.4,6,4.4c2.5,0,4.5-1.5,5.9-4.5
	C376.9,330.5,377.6,326.3,377.6,320.9z M451.7,304.6c-3.5,4-5.2,9.5-5.2,16.3c0,7,1.8,12.4,5.4,16.3c3.6,3.9,8.5,5.9,14.6,5.9
	c3.5,0,7.1-0.9,10.8-2.6v-21.3h-13.2v5.2h5.4v13.3c-1.2,0.1-2.1,0.2-2.8,0.2c-8.2,0-12.4-5.7-12.4-17c0-11.7,3.9-17.5,11.6-17.5
	c3.2,0,6.9,1.4,11.3,4.3v-6c-4.3-2.1-8.1-3.1-11.6-3.1C459.8,298.6,455.2,300.6,451.7,304.6z M271,304.4h9.3v38.2h7.8v-38.2h9.3
	v-5.2H271V304.4z M315,135.4c9.8,9.8,15.2,22.9,15.2,36.7h3c0-14.7-5.7-28.5-16.1-38.9c-10.4-10.4-24.2-16.1-38.9-16.1
	c-14.7,0-28.5,5.7-38.9,16.1c-5.3,5.3-9.5,11.6-12.2,18.6l2.8,1.1c2.6-6.6,6.5-12.5,11.6-17.6c9.8-9.8,22.9-15.2,36.7-15.2
	C292.1,120.2,305.2,125.6,315,135.4z M365.6,108.3h-25.4v3h25.4V108.3z M220,107.7h-28v3h28V107.7z"/>
</svg>
